# Blender v2.80 (sub 75) OBJ File: 'Ship._O_Ship_000.blend'
# www.blender.org
o Doors_Det_001
v 0.938398 1.686539 -3.014712
v 0.811898 4.178700 -4.346109
v 0.938398 1.686539 -4.134290
v 0.811898 4.178700 -4.888785
v 1.298928 1.686539 -3.014712
v 1.053323 4.178700 -4.346109
v 1.298928 1.686539 -4.134290
v 1.053323 4.178700 -4.888785
v 0.938398 2.472560 -3.471156
v 0.938398 2.472560 -4.281559
v 1.298928 2.472560 -4.281559
v 1.298928 2.472560 -3.471156
v 0.938398 2.865571 -3.495862
v 0.938398 2.865571 -4.306265
v 1.298928 2.865571 -4.306265
v 1.298928 2.865571 -3.495862
vt 0.844498 0.545030
vt 0.591864 0.736156
vt 0.443830 0.768796
vt 0.583081 0.536917
vt 0.343568 0.661788
vt 0.379536 0.399972
vt 0.229891 0.552007
vt 0.245064 0.272006
vt 0.082657 0.613473
vt 0.046197 0.309137
vt 0.650542 0.392501
vt 0.654589 0.142311
vt 1.000228 0.147902
vt 0.996181 0.398092
vt 0.476471 0.916830
vt 0.624505 0.884190
vt 0.220399 0.084768
vt 0.254346 0.229911
vt 0.038109 0.259179
vt 0.015356 0.123067
vt 0.441754 0.284030
vt 0.404114 0.364193
vt 0.602400 0.486854
vt 0.853676 0.494140
vn -0.9954 -0.0959 0.0000
vn 0.0000 -0.4055 -0.9141
vn 0.9830 0.1838 0.0000
vn 0.0000 0.5435 0.8394
vn 0.0000 -1.0000 0.0000
vn 0.0000 1.0000 0.0000
vn 0.0000 0.5022 0.8648
vn 1.0000 0.0000 0.0000
vn 0.0000 -0.1842 -0.9829
vn -1.0000 -0.0000 0.0000
vn 0.0000 0.0627 0.9980
vn 0.0000 -0.0627 -0.9980
s off
f 13/1/1 2/2/1 4/3/1 14/4/1
f 14/4/2 4/3/2 8/5/2 15/6/2
f 15/6/3 8/5/3 6/7/3 16/8/3
f 16/8/4 6/7/4 2/9/4 13/10/4
f 3/11/5 7/12/5 5/13/5 1/14/5
f 8/15/6 4/3/6 2/2/6 6/16/6
f 5/17/7 12/18/7 9/19/7 1/20/7
f 7/21/8 11/22/8 12/18/8 5/17/8
f 3/11/9 10/23/9 11/22/9 7/21/9
f 1/14/10 9/24/10 10/23/10 3/11/10
f 12/18/11 16/8/11 13/10/11 9/19/11
f 11/22/8 15/6/8 16/8/8 12/18/8
f 10/23/12 14/4/12 15/6/12 11/22/12
f 9/24/10 13/1/10 14/4/10 10/23/10
