# Blender v2.80 (sub 75) OBJ File: 'Ship._O_Ship_000.blend'
# www.blender.org
o Mast_000
v -0.000009 5.186581 -2.483517
v -0.000009 5.659070 -2.483517
v 0.167041 5.186581 -2.414322
v 0.167041 5.659070 -2.414322
v 0.236236 5.186581 -2.247272
v 0.236236 5.659070 -2.247272
v 0.167041 5.186581 -2.080223
v 0.167041 5.659070 -2.080223
v -0.000009 5.186581 -2.011028
v -0.000009 5.659070 -2.011028
v -0.167058 5.186581 -2.080223
v -0.167058 5.659070 -2.080223
v -0.236253 5.186581 -2.247272
v -0.236253 5.659070 -2.247272
v -0.167058 5.186581 -2.414322
v -0.167058 5.659070 -2.414322
v -0.000009 5.510339 -2.483517
v 0.167041 5.510339 -2.414322
v 0.236236 5.510339 -2.247272
v 0.133954 5.500492 -2.057158
v -0.000009 5.577836 -2.057158
v -0.133971 5.500492 -2.057158
v -0.236253 5.510339 -2.247272
v -0.167058 5.510339 -2.414322
v 0.167041 5.335958 -2.414322
v 0.236236 5.335958 -2.247272
v 0.133954 5.345805 -2.057158
v -0.000009 5.268462 -2.057158
v -0.133971 5.345805 -2.057158
v -0.236253 5.335958 -2.247272
v -0.167058 5.335958 -2.414322
v -0.000009 5.335958 -2.483517
v 0.065305 5.458900 5.234285
v -0.000009 5.496610 5.234285
v -0.065323 5.458900 5.234285
v 0.065305 5.383482 5.234285
v -0.000009 5.345774 5.234285
v -0.065323 5.383482 5.234285
v 0.000646 5.421661 5.265775
v -0.000009 5.307117 4.381505
v -0.099647 5.364644 4.381505
v -0.099647 5.479696 4.291151
v -0.000009 5.537223 4.291151
v 0.099630 5.479696 4.291151
v 0.099630 5.364644 4.381505
v -0.000009 5.326446 4.675266
v -0.082485 5.469298 4.762718
v 0.082467 5.469298 4.762718
v -0.082485 5.374063 4.675266
v -0.000009 5.516916 4.762718
v 0.082467 5.374063 4.675266
v 0.048959 5.141919 4.460701
v -0.000009 5.128960 4.459563
v -0.048977 5.141919 4.460701
v 0.040525 5.174980 4.605365
v -0.000009 5.151578 4.605365
v -0.040543 5.174980 4.605365
v 0.048959 5.101179 4.193947
v -0.000009 5.088220 4.192809
v -0.048977 5.101179 4.193947
v 0.040525 5.036057 4.430583
v -0.000009 5.012655 4.430583
v -0.040543 5.036057 4.430583
v 0.024865 5.212842 4.057096
v -0.000009 5.206260 4.056518
v -0.024883 5.212842 4.057096
v 0.024865 5.190271 3.942969
v -0.000009 5.183688 3.942391
v -0.024883 5.190271 3.942969
v -0.107860 5.360385 -1.066267
v -0.000009 5.547190 -1.108551
v 0.107843 5.360385 -1.066267
v -0.000009 5.298117 -1.066267
v -0.107860 5.484922 -1.108551
v 0.107843 5.484922 -1.108551
vt 0.500375 0.135873
vt 0.497934 0.157430
vt 0.471720 0.154475
vt 0.474115 0.132890
vt 0.445504 0.151628
vt 0.447745 0.129973
vt 0.419346 0.149011
vt 0.416044 0.125251
vt 0.392832 0.149524
vt 0.394327 0.135269
vt 0.366972 0.143529
vt 0.375180 0.120984
vt 0.340752 0.140564
vt 0.343139 0.118873
vt 0.324870 0.206967
vt 0.298249 0.203893
vt 0.281599 0.182896
vt 0.284673 0.156275
vt 0.305670 0.139625
vt 0.332290 0.142699
vt 0.348941 0.163696
vt 0.345867 0.190316
vt 0.314406 0.137789
vt 0.316671 0.116093
vt 0.288047 0.135059
vt 0.290293 0.113377
vt 0.341502 0.228126
vt 0.338428 0.254747
vt 0.317431 0.271397
vt 0.290810 0.268324
vt 0.274160 0.247327
vt 0.277233 0.220706
vt 0.298231 0.204056
vt 0.324851 0.207129
vt 0.319265 0.090617
vt 0.292893 0.087963
vt 0.345749 0.093228
vt 0.377624 0.097716
vt 0.143320 0.824157
vt 0.153493 0.835410
vt 0.099103 0.881578
vt 0.091757 0.873362
vt 0.173702 0.837890
vt 0.178965 0.852096
vt 0.112508 0.898980
vt 0.106033 0.890130
vt 0.450619 0.104432
vt 0.418553 0.102152
vt 0.477018 0.107516
vt 0.503303 0.110569
vt 0.505851 0.088865
vt 0.479580 0.085782
vt 0.453292 0.082645
vt 0.427037 0.079304
vt 0.399312 0.087346
vt 0.400862 0.072932
vt 0.374078 0.073662
vt 0.347745 0.071359
vt 0.321404 0.068837
vt 0.295071 0.066212
vt 0.131023 0.793166
vt 0.132555 0.813469
vt 0.083894 0.865641
vt 0.075676 0.858318
vt 0.117079 0.787244
vt 0.067138 0.851436
vt 0.274414 0.270451
vt 0.285284 0.267850
vt 0.282231 0.279619
vt 0.270291 0.280840
vt 0.293651 0.275262
vt 0.292369 0.286366
vt 0.276413 0.290192
vt 0.287584 0.290557
vt 0.770841 0.199743
vt 0.783702 0.213059
vt 0.198488 0.771512
vt 0.185986 0.758646
vt 0.740678 0.178743
vt 0.753372 0.191059
vt 0.163072 0.756199
vt 0.155232 0.741415
vt 0.796401 0.226529
vt 0.804260 0.244385
vt 0.212128 0.807605
vt 0.210755 0.784602
vt 0.815968 0.257642
vt 0.226528 0.816128
vt 0.234937 0.843464
vt 0.227435 0.848817
vt 0.203861 0.853298
vt 0.204407 0.860364
vt 0.234350 0.865478
vt 0.233580 0.871247
vt 0.122621 0.738981
vt 0.117042 0.762320
vt 0.106302 0.731294
vt 0.106515 0.703588
vt 0.128319 0.731738
vt 0.110010 0.761443
vt 0.101247 0.703601
vt 0.100503 0.731793
vt 0.262036 0.866561
vt 0.261776 0.871823
vt 0.281098 0.858310
vt 0.279052 0.860791
vt 0.283605 0.866511
vt 0.286941 0.868805
vt 0.115648 0.684933
vt 0.113074 0.686861
vt 0.107574 0.682045
vt 0.105438 0.678605
vt 0.884145 0.117209
vt 0.899319 0.133596
vt 0.913990 0.150410
vt 0.928186 0.167652
vt 0.852376 0.085844
vt 0.868487 0.101285
vt 0.835818 0.070857
vn 0.0000 0.0000 -1.0000
vn 0.0000 0.6302 -0.7764
vn 0.5490 0.6302 -0.5490
vn 0.7071 0.0000 -0.7071
vn 0.7857 0.6182 0.0206
vn 0.9991 -0.0183 0.0379
vn 0.5359 0.6002 0.5937
vn 0.8748 0.1890 0.4459
vn 0.0000 0.6014 0.7989
vn 0.0000 0.4808 0.8768
vn -0.5359 0.6002 0.5937
vn -0.8748 0.1890 0.4459
vn -0.7857 0.6182 0.0206
vn -0.9991 -0.0183 0.0379
vn -0.5490 0.6302 -0.5490
vn -0.7071 0.0000 -0.7071
vn 0.0000 -0.6302 -0.7764
vn 0.5490 -0.6302 -0.5490
vn 0.7856 -0.6183 0.0206
vn 0.5357 -0.6004 0.5937
vn 0.0000 -0.6013 0.7990
vn -0.5357 -0.6004 0.5937
vn -0.7856 -0.6183 0.0206
vn -0.5490 -0.6302 -0.5490
vn -0.9991 0.0182 0.0379
vn -0.8755 -0.1872 0.4454
vn 0.0000 0.9991 0.0430
vn -0.8683 0.4942 0.0427
vn -0.7509 0.4263 0.5043
vn -0.0003 0.8644 0.5028
vn -0.9226 -0.3370 0.1876
vn 0.0000 -0.7380 0.6748
vn -0.0003 -0.8656 0.5007
vn -0.7466 -0.4379 0.5007
vn 0.9991 0.0182 0.0379
vn 0.8755 -0.1872 0.4454
vn 0.0000 -0.4819 0.8762
vn 0.9226 -0.3370 0.1876
vn 0.8683 0.4942 0.0427
vn 0.7516 0.4271 0.5025
vn 0.7473 -0.4387 0.4989
vn 0.0036 0.0026 1.0000
vn 0.8652 0.5011 0.0183
vn 0.0000 0.9998 0.0172
vn 0.0000 0.9997 0.0223
vn 0.8656 0.5003 0.0191
vn 0.0000 -0.9998 0.0158
vn 0.8664 -0.4990 0.0146
vn 0.9325 -0.3456 -0.1046
vn 0.0000 -0.7556 -0.6550
vn -0.8652 0.5011 0.0183
vn -0.8664 -0.4990 0.0146
vn -0.9325 -0.3456 -0.1046
vn -0.8656 0.5003 0.0191
vn 0.0000 0.7148 -0.6992
vn -0.9668 0.0230 -0.2543
vn -0.6890 -0.4345 0.5800
vn 0.0000 -0.6459 0.7634
vn -0.7506 -0.6444 0.1462
vn 0.0000 -0.9875 0.1573
vn 0.9668 0.0230 -0.2543
vn 0.6890 -0.4345 0.5800
vn 0.7506 -0.6444 0.1462
vn 0.8442 -0.4931 -0.2099
vn 0.0000 -0.9486 -0.3165
vn -0.8442 -0.4931 -0.2099
vn 0.0000 1.0000 -0.0058
vn -0.4919 0.8704 -0.0179
vn -0.5022 0.2057 -0.8399
vn 0.0000 -0.0713 -0.9974
vn 0.4919 0.8704 -0.0179
vn 0.5022 0.2057 -0.8399
s 1
f 17/1/1 2/2/2 4/3/3 18/4/4
f 18/4/4 4/3/3 6/5/5 19/6/6
f 19/6/6 6/5/5 8/7/7 20/8/8
f 20/8/8 8/7/7 10/9/9 21/10/10
f 21/10/10 10/9/9 12/11/11 22/12/12
f 22/12/12 12/11/11 14/13/13 23/14/14
f 4/15/3 2/16/2 16/17/15 14/18/13 12/19/11 10/20/9 8/21/7 6/22/5
f 23/14/14 14/13/13 16/23/15 24/24/16
f 24/24/16 16/23/15 2/25/2 17/26/1
f 1/27/17 3/28/18 5/29/19 7/30/20 9/31/21 11/32/22 13/33/23 15/34/24
f 31/35/16 24/24/16 17/26/1 32/36/1
f 30/37/25 23/14/14 24/24/16 31/35/16
f 29/38/26 22/12/12 23/14/14 30/37/25
f 50/39/27 47/40/28 35/41/29 34/42/30
f 49/43/31 46/44/32 37/45/33 38/46/34
f 26/47/35 19/6/6 20/8/8 27/48/36
f 25/49/4 18/4/4 19/6/6 26/47/35
f 32/50/1 17/1/1 18/4/4 25/49/4
f 1/51/17 32/50/1 25/49/4 3/52/18
f 3/52/18 25/49/4 26/47/35 5/53/19
f 5/53/19 26/47/35 27/48/36 7/54/20
f 7/54/20 27/48/36 28/55/37 9/56/21
f 9/56/21 28/55/37 29/38/26 11/57/22
f 11/57/22 29/38/26 30/37/25 13/58/23
f 13/58/23 30/37/25 31/35/16 15/59/24
f 15/59/24 31/35/16 32/36/1 1/60/17
f 47/40/28 49/43/31 38/46/34 35/41/29
f 51/61/38 48/62/39 33/63/40 36/64/41
f 46/65/32 51/61/38 36/64/41 37/66/33
f 48/62/39 50/39/27 34/42/30 33/63/40
f 34/67/30 35/68/29 39/69/42
f 33/70/40 34/67/30 39/69/42
f 35/68/29 38/71/34 39/69/42
f 38/71/34 37/72/33 39/69/42
f 36/73/41 33/70/40 39/69/42
f 37/74/33 36/73/41 39/69/42
f 75/75/43 71/76/44 43/77/45 44/78/46
f 73/79/47 72/80/48 45/81/49 40/82/50
f 72/80/48 75/75/43 44/78/46 45/81/49
f 74/83/51 70/84/52 41/85/53 42/86/54
f 70/84/52 73/87/47 40/88/50 41/85/53
f 71/76/44 74/83/51 42/86/54 43/77/45
f 41/85/53 40/88/50 53/89/55 54/90/56
f 44/78/46 43/77/45 50/39/27 48/62/39
f 45/81/49 44/78/46 48/62/39 51/61/38
f 42/86/54 41/85/53 49/43/31 47/40/28
f 49/43/31 41/85/53 54/90/56 57/91/57
f 43/77/45 42/86/54 47/40/28 50/39/27
f 56/92/58 57/91/57 63/93/59 62/94/60
f 52/95/61 55/96/62 61/97/63 58/98/64
f 46/44/32 49/43/31 57/91/57 56/92/58
f 40/82/50 45/81/49 52/95/61 53/99/55
f 51/61/38 46/65/32 56/100/58 55/96/62
f 45/81/49 51/61/38 55/96/62 52/95/61
f 59/101/65 58/98/64 61/97/63 62/102/60
f 60/103/66 59/104/65 62/94/60 63/93/59
f 54/90/56 53/89/55 65/105/67 66/106/68
f 57/91/57 54/90/56 60/103/66 63/93/59
f 55/96/62 56/100/58 62/102/60 61/97/63
f 60/103/66 54/90/56 66/106/68 69/107/69
f 66/106/68 65/105/67 68/108/70 69/107/69
f 65/109/67 64/110/71 67/111/72 68/112/70
f 58/98/64 59/101/65 68/112/70 67/111/72
f 52/95/61 58/98/64 67/111/72 64/110/71
f 59/104/65 60/103/66 69/107/69 68/108/70
f 53/99/55 52/95/61 64/110/71 65/109/67
f 21/113/10 22/114/12 74/83/51 71/76/44
f 29/115/26 28/116/37 73/87/47 70/84/52
f 22/114/12 29/115/26 70/84/52 74/83/51
f 27/117/36 20/118/8 75/75/43 72/80/48
f 28/119/37 27/117/36 72/80/48 73/79/47
f 20/118/8 21/113/10 71/76/44 75/75/43
