# Blender v2.80 (sub 75) OBJ File: 'Ship._O_Ship_000.blend'
# www.blender.org
o Mast
v 0.000000 4.238748 -2.461622
v 0.000000 4.544886 -2.461622
v 0.144514 4.238748 -2.422899
v 0.144514 4.544886 -2.422899
v 0.250305 4.238748 -2.317108
v 0.250305 4.544886 -2.317108
v 0.289027 4.238748 -2.172594
v 0.289027 4.544886 -2.172594
v 0.250305 4.238748 -2.028081
v 0.250305 4.544886 -2.028081
v 0.144514 4.238748 -1.922289
v 0.144514 4.544886 -1.922289
v 0.000000 4.238748 -1.883567
v 0.000000 4.544886 -1.883567
v -0.144514 4.238748 -1.922289
v -0.144514 4.544886 -1.922289
v -0.250305 4.238748 -2.028080
v -0.250305 4.544886 -2.028080
v -0.289027 4.238748 -2.172594
v -0.289027 4.544886 -2.172594
v -0.250305 4.238748 -2.317108
v -0.250305 4.544886 -2.317108
v -0.144514 4.238748 -2.422899
v -0.144514 4.544886 -2.422899
v 0.000000 4.391817 -2.461622
v 0.144514 4.391817 -2.422899
v 0.250305 4.391817 -2.317108
v 0.289027 4.391817 -2.172594
v 0.250305 4.391817 -2.028081
v 0.144514 4.391817 -1.922289
v 0.000000 4.391817 -1.883567
v -0.144514 4.391817 -1.922289
v -0.250305 4.391817 -2.028080
v -0.289027 4.391817 -2.172594
v -0.250305 4.391817 -2.317108
v -0.144514 4.391817 -2.422899
v 0.094428 4.679297 -2.336149
v 0.000000 4.679297 -2.361450
v 0.163554 4.679297 -2.267022
v 0.188856 4.679297 -2.172594
v 0.163554 4.679297 -2.078166
v 0.094428 4.679297 -2.009040
v 0.000000 4.679297 -1.983738
v -0.094428 4.679297 -2.009040
v -0.163554 4.679297 -2.078166
v -0.188856 4.679297 -2.172594
v -0.163554 4.679297 -2.267022
v -0.094428 4.679297 -2.336149
v -0.380325 4.566020 -2.172594
v -0.380325 4.517186 -2.085832
v -0.380325 4.517186 -2.259357
v -0.380325 4.419517 -2.085832
v -0.380325 4.419517 -2.259357
v -0.380325 4.370682 -2.172594
v 0.412786 4.566020 -2.172594
v 0.412786 4.517186 -2.260035
v 0.412786 4.517186 -2.085154
v 0.412786 4.419517 -2.260035
v 0.412786 4.419517 -2.085154
v 0.412786 4.370682 -2.172594
v -2.704726 4.537395 -2.172594
v -2.704725 4.502873 -2.111260
v -2.704726 4.502873 -2.233929
v -2.704725 4.433829 -2.111260
v -2.704726 4.433829 -2.233929
v -2.704726 4.399307 -2.172594
v 2.553103 4.522845 -2.172595
v 2.553103 4.495598 -2.221382
v 2.553103 4.495598 -2.123807
v 2.553103 4.441104 -2.221382
v 2.553103 4.441104 -2.123807
v 2.553103 4.413857 -2.172595
v 0.046897 5.363004 -2.253823
v -0.000000 5.363004 -2.266389
v 0.081229 5.363004 -2.219492
v 0.093795 5.363004 -2.172594
v 0.081229 5.363004 -2.125697
v 0.046897 5.363004 -2.091365
v -0.000000 5.363004 -2.078799
v -0.046898 5.363004 -2.091365
v -0.081229 5.363004 -2.125697
v -0.093795 5.363004 -2.172594
v -0.081229 5.363004 -2.219492
v -0.046898 5.363004 -2.253823
v 0.046897 23.441578 -2.253814
v -0.000000 23.441578 -2.266380
v 0.081228 23.441578 -2.219482
v 0.093795 23.441578 -2.172585
v 0.081228 23.441578 -2.125687
v 0.046897 23.441578 -2.091356
v -0.000000 23.441578 -2.078790
v -0.046898 23.441578 -2.091356
v -0.081229 23.441578 -2.125687
v -0.093795 23.441578 -2.172585
v -0.081229 23.441578 -2.219482
v -0.046898 23.441578 -2.253814
v 0.005818 23.487387 -2.169424
v 2.557395 4.467874 -2.170690
v -2.708813 4.459979 -2.175659
vt 0.260569 0.008366
vt 0.277994 0.017213
vt 0.268766 0.033213
vt 0.252425 0.025196
vt 0.261872 0.048769
vt 0.245219 0.042065
vt 0.234673 0.077106
vt 0.252126 0.080902
vt 0.249465 0.097770
vt 0.231448 0.095234
vt 0.248126 0.114908
vt 0.229684 0.113816
vt 0.248224 0.132255
vt 0.229444 0.132749
vt 0.249900 0.149651
vt 0.230774 0.151990
vt 0.264250 0.202457
vt 0.257259 0.184821
vt 0.280520 0.177185
vt 0.286414 0.191492
vt 0.238619 0.190487
vt 0.245018 0.210000
vt 0.274048 0.221018
vt 0.253118 0.230351
vt 0.465368 0.028835
vt 0.465368 0.049859
vt 0.454856 0.068067
vt 0.436649 0.078579
vt 0.415625 0.078579
vt 0.397417 0.068067
vt 0.386905 0.049859
vt 0.386905 0.028835
vt 0.397417 0.010627
vt 0.415625 0.000115
vt 0.436649 0.000115
vt 0.454856 0.010627
vt 0.224085 0.217127
vt 0.231618 0.238263
vt 0.217872 0.196114
vt 0.213202 0.175182
vt 0.233874 0.171279
vt 0.210201 0.154156
vt 0.209036 0.133204
vt 0.209621 0.112599
vt 0.211824 0.092448
vt 0.215532 0.072821
vt 0.220678 0.053681
vt 0.239213 0.059364
vt 0.227237 0.035165
vt 0.234833 0.017388
vt 0.242898 0.000115
vt 0.273333 0.146973
vt 0.271735 0.131584
vt 0.377277 0.124247
vt 0.378081 0.131319
vt 0.287756 0.043816
vt 0.282276 0.057267
vt 0.252703 0.167152
vt 0.276218 0.162237
vt 0.271429 0.116208
vt 0.272377 0.100970
vt 0.274548 0.085988
vt 0.256562 0.064647
vt 0.277895 0.071390
vt 0.293859 0.204644
vt 0.294553 0.031529
vt 0.209036 0.388671
vt 0.217752 0.374012
vt 0.233743 0.374267
vt 0.232531 0.388801
vt 0.211273 0.340911
vt 0.222868 0.328094
vt 0.237293 0.332152
vt 0.233754 0.345725
vt 0.210673 0.250733
vt 0.222587 0.238493
vt 0.233043 0.241100
vt 0.229335 0.254508
vt 0.209947 0.314461
vt 0.209036 0.296495
vt 0.228388 0.297337
vt 0.229748 0.311537
vt 0.218801 0.282834
vt 0.230233 0.283020
vt 0.209173 0.268321
vt 0.228924 0.268659
vt 0.222189 0.327864
vt 0.233262 0.325330
vt 0.209304 0.358712
vt 0.232976 0.359751
vt 0.222269 0.420675
vt 0.210445 0.406899
vt 0.234016 0.402847
vt 0.237404 0.416713
vt 0.558941 0.272879
vt 0.558884 0.283168
vt 0.559451 0.254050
vt 0.559118 0.263936
vt 0.558941 0.293457
vt 0.559115 0.302407
vt 0.559451 0.312286
vt 0.537119 0.366253
vt 0.537042 0.374375
vt 0.537770 0.351219
vt 0.537349 0.359067
vt 0.537119 0.382498
vt 0.537347 0.389692
vt 0.537770 0.397537
vt 0.378156 0.103048
vt 0.377320 0.110067
vt 0.383753 0.151882
vt 0.386674 0.158346
vt 0.383766 0.082782
vt 0.381399 0.089367
vt 0.379435 0.138314
vt 0.377024 0.117148
vt 0.379522 0.096136
vt 0.381331 0.145185
vt 0.386674 0.076194
vt 0.069679 0.997830
vt 0.052288 0.997574
vt 0.052288 0.000886
vt 0.069679 0.001143
vt 0.191415 0.999628
vt 0.174024 0.999371
vt 0.174024 0.002685
vt 0.191415 0.002942
vt 0.017506 0.997060
vt 0.000115 0.996803
vt 0.000115 0.000115
vt 0.017506 0.000372
vt 0.139242 0.998858
vt 0.121851 0.998601
vt 0.121851 0.001914
vt 0.139242 0.002171
vt 0.087069 0.998087
vt 0.087070 0.001400
vt 0.208805 0.999885
vt 0.208805 0.003199
vt 0.034897 0.997317
vt 0.034897 0.000629
vt 0.156633 0.999114
vt 0.156633 0.002428
vt 0.104460 0.998344
vt 0.104460 0.001657
vt 0.413871 0.095935
vt 0.410233 0.102205
vt 0.399566 0.092508
vt 0.396740 0.105773
vt 0.390514 0.102159
vt 0.386905 0.088744
vt 0.390476 0.082495
vt 0.413871 0.088678
vt 0.403956 0.105800
vt 0.386921 0.095932
vt 0.410227 0.082403
vt 0.396702 0.078851
vt 0.403933 0.078809
vt 0.386905 0.129901
vt 0.393774 0.126064
vt 0.393508 0.133671
vt 0.400643 0.129901
vt 0.400643 0.137575
vt 0.393773 0.141412
vt 0.386905 0.137574
vt 0.403836 0.120696
vt 0.395373 0.125834
vt 0.396604 0.116133
vt 0.395372 0.106030
vt 0.403836 0.110796
vt 0.386905 0.111167
vt 0.386906 0.121071
vn 0.0000 0.0000 -1.0000
vn 0.0000 0.3003 -0.9538
vn 0.4769 0.3003 -0.8260
vn 0.5000 0.0000 -0.8660
vn 0.6142 0.4495 -0.6485
vn 0.7064 -0.1579 -0.6900
vn 0.7064 -0.1579 0.6900
vn 0.6142 0.4495 0.6485
vn 0.4769 0.3003 0.8260
vn 0.5000 0.0000 0.8660
vn 0.0000 0.3003 0.9538
vn 0.0000 0.0000 1.0000
vn -0.4769 0.3003 0.8260
vn -0.5000 0.0000 0.8660
vn -0.6348 0.4383 0.6363
vn -0.7231 -0.1454 0.6753
vn -0.4769 0.3003 -0.8260
vn -0.6348 0.4383 -0.6363
vn -0.7957 0.3947 -0.4594
vn -0.4594 0.3947 -0.7957
vn -0.7231 -0.1454 -0.6753
vn -0.5000 0.0000 -0.8660
vn 0.0000 -0.6532 -0.7571
vn 0.3786 -0.6532 -0.6557
vn 0.6557 -0.6532 -0.3786
vn 0.7571 -0.6532 0.0000
vn 0.6557 -0.6532 0.3786
vn 0.3786 -0.6532 0.6557
vn 0.0000 -0.6532 0.7571
vn -0.3786 -0.6532 0.6557
vn -0.6557 -0.6532 0.3786
vn -0.7571 -0.6532 0.0000
vn -0.6557 -0.6532 -0.3786
vn -0.3786 -0.6532 -0.6557
vn -0.6864 -0.7272 0.0000
vn 0.6766 -0.7364 0.0000
vn -0.7957 0.3947 0.4594
vn -0.4594 0.3947 0.7957
vn -0.4988 0.0698 0.8639
vn -0.8639 0.0698 0.4988
vn 0.4594 0.3947 -0.7957
vn 0.7957 0.3947 -0.4594
vn -0.4379 0.8990 0.0000
vn -0.9188 0.3947 0.0000
vn 0.0000 0.3947 0.9188
vn 0.4594 0.3947 0.7957
vn 0.7957 0.3947 0.4594
vn 0.4263 0.9046 0.0000
vn 0.9188 0.3947 0.0000
vn 0.0000 0.3947 -0.9188
vn 0.0443 0.9990 0.0000
vn 0.1385 0.5753 -0.8061
vn 0.0443 -0.9990 0.0000
vn 0.1385 -0.5753 0.8061
vn -0.0511 -0.9987 0.0000
vn -0.1668 -0.5774 -0.7992
vn -0.1668 0.5774 0.7992
vn -0.1668 -0.5774 0.7992
vn -0.0511 0.9987 0.0000
vn -0.1668 0.5774 -0.7992
vn 0.1385 0.5753 0.8061
vn 0.1385 -0.5753 -0.8061
vn -0.5972 0.4055 -0.6920
vn -0.6005 0.7996 0.0002
vn -0.5962 -0.8028 0.0004
vn -0.5949 -0.4050 -0.6943
vn -0.5983 0.4048 0.6915
vn -0.5964 -0.4042 0.6934
vn 0.5935 0.4075 0.6941
vn 0.5965 0.8026 -0.0003
vn 0.5960 -0.8029 -0.0003
vn 0.5933 -0.4074 0.6942
vn 0.5948 0.4067 -0.6934
vn 0.5946 -0.4067 -0.6935
vn 0.8639 0.0698 0.4988
vn 0.4988 0.0698 0.8639
vn -0.4988 0.0698 -0.8639
vn 0.0000 0.0698 -0.9976
vn 0.4988 0.0698 -0.8639
vn 0.8639 0.0698 -0.4988
vn -0.9976 0.0698 0.0000
vn 0.0000 0.0698 0.9976
vn 0.9976 0.0698 0.0000
vn -0.8639 0.0698 -0.4988
vn 0.8750 0.4841 -0.0011
vn 0.7584 0.4826 0.4379
vn -0.7481 0.5037 -0.4319
vn -0.4331 0.5023 -0.7483
vn -0.0017 0.4988 -0.8667
vn 0.4330 0.4936 -0.7542
vn -0.4364 0.4942 0.7518
vn -0.7512 0.4992 0.4318
vn 0.4364 0.4844 0.7582
vn 0.7548 0.4882 -0.4379
vn -0.8645 0.5026 -0.0009
vn -0.0019 0.4887 0.8724
vn 0.0255 0.9996 0.0138
vn 1.0000 -0.0008 0.0031
vn -0.9999 -0.0089 -0.0031
s 1
f 25/1/1 2/2/2 4/3/3 26/4/4
f 26/4/4 4/3/3 6/5/5 27/6/6
f 29/7/7 10/8/8 12/9/9 30/10/10
f 30/10/10 12/9/9 14/11/11 31/12/12
f 31/12/12 14/11/11 16/13/13 32/14/14
f 32/14/14 16/13/13 18/15/15 33/16/16
f 24/17/17 22/18/18 47/19/19 48/20/20
f 35/21/21 22/18/18 24/17/17 36/22/22
f 36/22/22 24/17/17 2/23/2 25/24/1
f 1/25/23 3/26/24 5/27/25 7/28/26 9/29/27 11/30/28 13/31/29 15/32/30 17/33/31 19/34/32 21/35/33 23/36/34
f 23/37/34 36/22/22 25/24/1 1/38/23
f 21/39/33 35/21/21 36/22/22 23/37/34
f 19/40/32 34/41/35 35/21/21 21/39/33
f 17/42/31 33/16/16 34/41/35 19/40/32
f 15/43/30 32/14/14 33/16/16 17/42/31
f 13/44/29 31/12/12 32/14/14 15/43/30
f 11/45/28 30/10/10 31/12/12 13/44/29
f 9/46/27 29/7/7 30/10/10 11/45/28
f 7/47/26 28/48/36 29/7/7 9/46/27
f 5/49/25 27/6/6 28/48/36 7/47/26
f 3/50/24 26/4/4 27/6/6 5/49/25
f 1/51/23 25/1/1 26/4/4 3/50/24
f 45/52/37 44/53/38 80/54/39 81/55/40
f 6/5/5 4/3/3 37/56/41 39/57/42
f 22/18/18 20/58/43 46/59/44 47/19/19
f 20/58/43 18/15/15 45/52/37 46/59/44
f 18/15/15 16/13/13 44/53/38 45/52/37
f 16/13/13 14/11/11 43/60/45 44/53/38
f 14/11/11 12/9/9 42/61/46 43/60/45
f 12/9/9 10/8/8 41/62/47 42/61/46
f 10/8/8 8/63/48 40/64/49 41/62/47
f 2/23/2 24/17/17 48/20/20 38/65/50
f 4/3/3 2/2/2 38/66/50 37/56/41
f 8/63/48 6/5/5 39/57/42 40/64/49
f 6/67/5 8/68/48 55/69/51 56/70/52
f 29/71/7 28/72/36 60/73/53 59/74/54
f 35/75/21 34/76/35 54/77/55 53/78/56
f 33/79/16 18/80/15 50/81/57 52/82/58
f 18/80/15 20/83/43 49/84/59 50/81/57
f 22/85/18 35/75/21 53/78/56 51/86/60
f 20/83/43 22/85/18 51/86/60 49/84/59
f 34/87/35 33/79/16 52/82/58 54/88/55
f 10/89/8 29/71/7 59/74/54 57/90/61
f 28/91/36 27/92/6 58/93/62 60/94/53
f 8/68/48 10/89/8 57/90/61 55/69/51
f 27/92/6 6/67/5 56/70/52 58/93/62
f 49/84/59 51/86/60 63/95/63 61/96/64
f 53/78/56 54/77/55 66/97/65 65/98/66
f 52/82/58 50/81/57 62/99/67 64/100/68
f 50/81/57 49/84/59 61/96/64 62/99/67
f 54/88/55 52/82/58 64/100/68 66/101/65
f 51/86/60 53/78/56 65/98/66 63/95/63
f 55/69/51 57/90/61 69/102/69 67/103/70
f 59/74/54 60/73/53 72/104/71 71/105/72
f 58/93/62 56/70/52 68/106/73 70/107/74
f 56/70/52 55/69/51 67/103/70 68/106/73
f 60/94/53 58/93/62 70/107/74 72/108/71
f 57/90/61 59/74/54 71/105/72 69/102/69
f 42/61/46 41/62/47 77/109/75 78/110/76
f 38/65/50 48/20/20 84/111/77 74/112/78
f 39/57/42 37/56/41 73/113/79 75/114/80
f 46/59/44 45/52/37 81/55/40 82/115/81
f 43/60/45 42/61/46 78/110/76 79/116/82
f 40/64/49 39/57/42 75/114/80 76/117/83
f 47/19/19 46/59/44 82/115/81 83/118/84
f 44/53/38 43/60/45 79/116/82 80/54/39
f 41/62/47 40/64/49 76/117/83 77/109/75
f 48/20/20 47/19/19 83/118/84 84/111/77
f 37/56/41 38/66/50 74/119/78 73/113/79
f 77/120/75 76/121/83 88/122/85 89/123/86
f 84/124/77 83/125/84 95/126/87 96/127/88
f 73/128/79 74/129/78 86/130/89 85/131/90
f 81/132/40 80/133/39 92/134/91 93/135/92
f 78/136/76 77/120/75 89/123/86 90/137/93
f 74/138/78 84/124/77 96/127/88 86/139/89
f 75/140/80 73/128/79 85/131/90 87/141/94
f 82/142/81 81/132/40 93/135/92 94/143/95
f 79/144/82 78/136/76 90/137/93 91/145/96
f 76/121/83 75/140/80 87/141/94 88/122/85
f 83/125/84 82/142/81 94/143/95 95/126/87
f 80/133/39 79/144/82 91/145/96 92/134/91
f 94/146/95 93/147/92 97/148/97
f 91/149/96 90/150/93 97/148/97
f 88/151/85 87/152/94 97/148/97
f 95/153/87 94/146/95 97/148/97
f 92/154/91 91/149/96 97/148/97
f 89/155/86 88/151/85 97/148/97
f 96/156/88 95/153/87 97/148/97
f 85/157/90 86/158/89 97/148/97
f 93/147/92 92/154/91 97/148/97
f 90/150/93 89/155/86 97/148/97
f 86/158/89 96/156/88 97/148/97
f 87/152/94 85/157/90 97/148/97
f 71/159/72 72/160/71 98/161/98
f 70/162/74 68/163/73 98/161/98
f 68/163/73 67/164/70 98/161/98
f 72/160/71 70/162/74 98/161/98
f 69/165/69 71/159/72 98/161/98
f 67/164/70 69/165/69 98/161/98
f 66/166/65 64/167/68 99/168/99
f 63/169/63 65/170/66 99/168/99
f 61/171/64 63/169/63 99/168/99
f 65/170/66 66/166/65 99/168/99
f 64/167/68 62/172/67 99/168/99
f 62/172/67 61/171/64 99/168/99
