# Blender v2.80 (sub 75) OBJ File: 'Ship._O_Ship_000.blend'
# www.blender.org
o Rims
v 2.363966 0.991861 7.849280
v 1.901814 1.098439 7.737795
v 1.762846 0.767082 7.739197
v 2.139113 0.455714 7.851548
v 2.431022 0.660509 7.895813
v 2.486324 0.777600 6.845698
v 2.007262 0.913788 6.872905
v 1.840935 0.630342 7.098714
v 2.217201 0.318974 7.211066
v 2.536471 0.475857 7.030923
v 2.393621 0.368324 6.021904
v 1.927370 0.561073 6.162956
v 1.781772 0.369143 6.572972
v 2.158039 0.057776 6.685322
v 2.456579 0.123142 6.320975
v 2.104218 -0.154902 5.541061
v 1.677962 0.110155 5.748564
v 1.597076 0.035222 6.266099
v 1.973342 -0.276146 6.378450
v 2.207170 -0.327776 5.906583
v 1.675434 -0.688449 5.498405
v 1.308434 -0.349658 5.711803
v 1.323427 -0.305286 6.238876
v 1.699694 -0.616654 6.351227
v 1.837642 -0.787589 5.869822
v 1.192195 -1.126641 5.902384
v 0.891977 -0.727293 6.059954
v 1.015026 -0.584938 6.496696
v 1.391292 -0.896307 6.609046
v 1.421186 -1.165224 6.217972
v 0.750214 -1.382689 6.672987
v 0.511076 -0.947956 6.724061
v 0.732955 -0.748347 6.988491
v 1.109221 -1.059715 7.100841
v 1.040285 -1.385886 6.882080
v 0.437029 -1.405878 7.657585
v 0.241172 -0.967940 7.572592
v 0.533081 -0.763146 7.616857
v 0.909348 -1.074514 7.729208
v 0.770381 -1.405871 7.730610
v 0.314670 -1.191617 8.661165
v 0.135723 -0.783290 8.437481
v 0.454993 -0.626406 8.257339
v 0.831259 -0.937774 8.369690
v 0.664932 -1.221220 8.595499
v 0.407373 -0.782342 9.484961
v 0.215615 -0.430575 9.147430
v 0.514155 -0.365208 8.783082
v 0.890422 -0.676576 8.895432
v 0.744823 -0.868506 9.305449
v 0.696777 -0.259115 9.965803
v 0.465024 0.020344 9.561822
v 0.698852 -0.031286 9.089955
v 1.075118 -0.342654 9.202306
v 0.994232 -0.417587 9.719841
v 1.125561 0.274432 10.008460
v 0.834551 0.480157 9.598583
v 0.972500 0.309222 9.117179
v 1.348767 -0.002146 9.229529
v 1.363760 0.042226 9.756602
v 1.608799 0.712624 9.604482
v 1.251008 0.857792 9.250434
v 1.280901 0.588874 8.859361
v 1.657167 0.277506 8.971711
v 1.780216 0.419861 9.408453
v 2.050781 0.968671 8.833879
v 1.631909 1.078454 8.586326
v 1.562972 0.752283 8.367564
v 1.939239 0.440915 8.479914
v 2.161118 0.640523 8.744345
v 2.285067 0.558111 7.873681
v 2.376836 0.397415 7.120994
v 2.307309 0.090459 6.503149
v 2.090256 -0.301961 6.142516
v 1.768668 -0.702121 6.110524
v 1.406239 -1.030765 6.413509
v 1.074753 -1.222801 6.991460
v 0.839864 -1.240193 7.729909
v 0.748095 -1.079497 8.482594
v 0.817623 -0.772541 9.100441
v 1.034675 -0.380121 9.461074
v 1.356263 0.020040 9.493066
v 1.718692 0.348683 9.190083
v 2.050178 0.540719 8.612130
v -2.418256 0.906842 7.790629
v -2.443873 0.582356 7.838068
v -2.135975 0.403585 7.813312
v -1.842777 0.694195 7.728112
v -1.976164 1.045935 7.702158
v -2.474417 0.660491 6.757073
v -2.492272 0.370049 6.947347
v -2.171817 0.246364 7.153700
v -1.878618 0.536974 7.068501
v -2.024563 0.833628 6.811437
v -2.305828 0.246008 5.923471
v -2.346981 0.012846 6.228945
v -2.064224 -0.018157 6.621698
v -1.771025 0.272453 6.536499
v -1.879272 0.476425 6.093035
v -1.945881 -0.254511 5.454926
v -2.036778 -0.418503 5.825152
v -1.834508 -0.337587 6.322674
v -1.541308 -0.046976 6.237475
v -1.569069 0.045077 5.689242
v -1.465867 -0.741933 5.444241
v -1.623100 -0.838565 5.815943
v -1.528164 -0.648658 6.315855
v -1.234965 -0.358048 6.230656
v -1.155392 -0.374986 5.680034
v -0.960860 -1.119718 5.893531
v -1.187883 -1.164142 6.203143
v -1.205870 -0.889759 6.602591
v -0.912671 -0.599149 6.517391
v -0.720175 -0.700562 6.067234
v -0.530882 -1.313041 6.713809
v -0.817327 -1.330748 6.910060
v -0.931460 -1.013137 7.126089
v -0.638261 -0.722527 7.040889
v -0.349618 -0.867169 6.774151
v -0.261095 -1.283613 7.742608
v -0.584824 -1.305386 7.796684
v -0.759283 -0.994356 7.782665
v -0.466084 -0.703745 7.697465
v -0.117115 -0.841807 7.660774
v -0.204935 -1.037261 8.776162
v -0.536424 -1.093079 8.687405
v -0.723441 -0.837135 8.442274
v -0.430242 -0.546525 8.357078
v -0.068715 -0.629500 8.551496
v -0.373523 -0.622778 9.609766
v -0.681715 -0.735877 9.405807
v -0.831034 -0.572614 8.974278
v -0.537835 -0.282003 8.889079
v -0.214006 -0.272297 9.269897
v -0.733471 -0.122259 10.078309
v -0.991919 -0.304528 9.809599
v -1.060751 -0.253184 9.273302
v -0.767552 0.037426 9.188102
v -0.524210 0.159052 9.673690
v -1.213485 0.365163 10.088995
v -1.405596 0.115535 9.818808
v -1.367094 0.057887 9.280121
v -1.073896 0.348498 9.194922
v -0.937887 0.579114 9.682899
v -1.718491 0.742948 9.639707
v -1.840812 0.441111 9.431610
v -1.689388 0.298988 8.993387
v -1.396189 0.589598 8.908188
v -1.373103 0.904690 9.295699
v -2.148469 0.936271 8.819429
v -2.211369 0.607717 8.724692
v -1.963798 0.422366 8.469889
v -1.670600 0.712977 8.384689
v -1.743660 1.071297 8.588781
vt 0.674046 0.102049
vt 0.613614 0.149754
vt 0.546479 0.097393
vt 0.636289 0.025749
vt 0.113504 0.570356
vt 0.204537 0.548881
vt 0.204329 0.605011
vt 0.137819 0.621239
vt 0.207137 0.673284
vt 0.170141 0.681949
vt 0.699895 0.153965
vt 0.659443 0.185319
vt 0.645215 0.173746
vt 0.692101 0.137370
vt 0.579859 0.218969
vt 0.496648 0.200917
vt 0.295460 0.569109
vt 0.270780 0.619304
vt 0.243400 0.681180
vt 0.636591 0.231136
vt 0.618747 0.226878
vt 0.579471 0.295983
vt 0.496662 0.315815
vt 0.368237 0.627186
vt 0.324013 0.661432
vt 0.271810 0.704781
vt 0.635870 0.282341
vt 0.617944 0.286243
vt 0.612525 0.365543
vt 0.546516 0.419332
vt 0.408200 0.711224
vt 0.353417 0.722869
vt 0.286714 0.739267
vt 0.657424 0.328795
vt 0.642964 0.340084
vt 0.672470 0.413873
vt 0.636339 0.490964
vt 0.408200 0.803984
vt 0.353667 0.791325
vt 0.284937 0.778236
vt 0.696981 0.361301
vt 0.688849 0.377738
vt 0.747428 0.431403
vt 0.748338 0.516518
vt 0.369737 0.887735
vt 0.325785 0.853402
vt 0.270190 0.813887
vt 0.746687 0.373431
vt 0.746497 0.391757
vt 0.822541 0.414652
vt 0.860306 0.490917
vt 0.299011 0.947503
vt 0.274075 0.897516
vt 0.241555 0.838037
vt 0.796696 0.362768
vt 0.804487 0.379352
vt 0.882926 0.366948
vt 0.950043 0.419263
vt 0.208697 0.970654
vt 0.208172 0.914520
vt 0.205317 0.846532
vt 0.837102 0.331420
vt 0.851329 0.342980
vt 0.916641 0.297750
vt 0.999813 0.315786
vt 0.116859 0.951567
vt 0.141213 0.900658
vt 0.168823 0.837933
vt 0.859914 0.285602
vt 0.877759 0.289850
vt 0.917029 0.220756
vt 0.999813 0.200957
vt 0.042474 0.893770
vt 0.086867 0.858556
vt 0.139474 0.813923
vt 0.860615 0.234377
vt 0.878550 0.230482
vt 0.884026 0.151187
vt 0.950039 0.097450
vt 0.000811 0.809056
vt 0.056228 0.796700
vt 0.123266 0.779221
vt 0.839119 0.187892
vt 0.853582 0.176620
vt 0.824124 0.102841
vt 0.860273 0.025780
vt 0.000187 0.714645
vt 0.055460 0.727554
vt 0.123538 0.740696
vt 0.799619 0.155384
vt 0.807746 0.138958
vt 0.749181 0.085305
vt 0.748288 0.000187
vt 0.040502 0.629461
vt 0.084633 0.664937
vt 0.140279 0.705987
vt 0.749928 0.143282
vt 0.750112 0.124954
vt 0.749712 0.161270
vt 0.707513 0.170269
vt 0.791610 0.171486
vt 0.824896 0.198921
vt 0.842988 0.238162
vt 0.842401 0.281400
vt 0.823158 0.320049
vt 0.789083 0.346479
vt 0.746913 0.355447
vt 0.705002 0.345182
vt 0.671644 0.317743
vt 0.653477 0.278546
vt 0.654100 0.235350
vt 0.673387 0.196707
vt 0.164243 0.096996
vt 0.244718 0.071399
vt 0.250159 0.108486
vt 0.186590 0.131021
vt 0.245813 0.151925
vt 0.199343 0.170915
vt 0.655921 0.843814
vt 0.699536 0.862654
vt 0.678754 0.910374
vt 0.616695 0.877866
vt 0.666852 0.973512
vt 0.584141 0.925765
vt 0.108349 0.051981
vt 0.214764 0.000187
vt 0.314911 0.083058
vt 0.307034 0.116344
vt 0.289320 0.155921
vt 0.738686 0.860024
vt 0.745378 0.910035
vt 0.758503 0.976306
vt 0.330523 0.000974
vt 0.371219 0.123578
vt 0.351965 0.150004
vt 0.323626 0.181859
vt 0.768062 0.836917
vt 0.803779 0.875665
vt 0.840557 0.928458
vt 0.441110 0.056646
vt 0.412379 0.192318
vt 0.381919 0.206913
vt 0.344001 0.225749
vt 0.784968 0.796591
vt 0.840584 0.810980
vt 0.891532 0.836519
vt 0.496273 0.177267
vt 0.419712 0.286248
vt 0.386045 0.281135
vt 0.345988 0.280294
vt 0.788815 0.744733
vt 0.841239 0.731577
vt 0.891532 0.724690
vt 0.496273 0.308847
vt 0.386383 0.380026
vt 0.360216 0.355513
vt 0.327069 0.334013
vt 0.772273 0.693162
vt 0.811459 0.658785
vt 0.849180 0.623794
vt 0.445045 0.429003
vt 0.321150 0.447768
vt 0.309982 0.411604
vt 0.291112 0.375318
vt 0.739300 0.653224
vt 0.758866 0.605546
vt 0.775604 0.550309
vt 0.353496 0.514068
vt 0.245229 0.477673
vt 0.249628 0.438720
vt 0.246577 0.396517
vt 0.697912 0.632365
vt 0.694366 0.581177
vt 0.687386 0.516892
vt 0.244291 0.548507
vt 0.173239 0.473034
vt 0.190739 0.436054
vt 0.202118 0.394616
vt 0.656925 0.632283
vt 0.631946 0.589137
vt 0.602754 0.528281
vt 0.139862 0.532536
vt 0.109828 0.435751
vt 0.139518 0.403340
vt 0.164894 0.369057
vt 0.622185 0.654328
vt 0.582563 0.625263
vt 0.537973 0.579548
vt 0.054526 0.471479
vt 0.066763 0.361353
vt 0.106545 0.342155
vt 0.142083 0.323557
vt 0.600708 0.696648
vt 0.555086 0.682935
vt 0.502339 0.658476
vt 0.004755 0.373008
vt 0.058727 0.263552
vt 0.102391 0.263658
vt 0.139897 0.266967
vt 0.599667 0.750564
vt 0.549843 0.751638
vt 0.496648 0.751568
vt 0.000187 0.260270
vt 0.094153 0.166463
vt 0.131405 0.186560
vt 0.160383 0.211774
vt 0.619142 0.803852
vt 0.571024 0.821093
vt 0.524643 0.846405
vt 0.031452 0.146286
vn 0.7009 0.7081 0.0855
vn 0.7375 0.6340 -0.2324
vn -0.3681 0.8816 -0.2954
vn -0.3869 0.9059 -0.1718
vn -0.9871 -0.1555 0.0374
vn -0.9578 -0.2164 -0.1890
vn -0.0319 -0.9460 0.3226
vn -0.0162 -0.9956 0.0921
vn 0.5428 -0.8163 0.1973
vn 0.5456 -0.7903 0.2787
vn 0.9330 -0.3307 0.1417
vn 0.9209 -0.3133 0.2318
vn 0.6850 0.4404 -0.5803
vn -0.3804 0.8091 -0.4479
vn -0.9600 0.0112 0.2798
vn 0.0386 -0.8151 0.5779
vn 0.5871 -0.7299 0.3501
vn 0.9216 -0.3870 0.0306
vn 0.4668 0.0711 -0.8815
vn -0.4804 0.6355 -0.6044
vn -0.8140 0.3224 0.4832
vn 0.2419 -0.5513 0.7984
vn 0.6566 -0.6420 0.3956
vn 0.8482 -0.5235 -0.0802
vn 0.1012 -0.3838 -0.9178
vn -0.6760 0.3920 -0.6239
vn -0.5288 0.6772 0.5115
vn 0.5270 -0.1965 0.8268
vn 0.7371 -0.5419 0.4036
vn 0.7006 -0.7072 -0.0949
vn -0.2338 -0.7029 -0.6717
vn -0.8353 0.2431 -0.4931
vn -0.2421 0.9044 0.3512
vn 0.7564 0.0781 0.6493
vn 0.8109 -0.4514 0.3724
vn 0.5752 -0.8180 -0.0038
vn -0.4378 -0.8284 -0.3493
vn -0.9149 0.2011 -0.3498
vn -0.0670 0.9894 0.1289
vn 0.8882 0.1989 0.4142
vn 0.8662 -0.3914 0.3106
vn 0.5143 -0.8517 0.1001
vn -0.5426 -0.8391 -0.0382
vn -0.9524 0.2024 -0.2281
vn 0.0162 0.9956 -0.0921
vn 0.9578 0.2164 0.1890
vn 0.8972 -0.3753 0.2326
vn 0.4877 -0.8523 0.1888
vn -0.5758 -0.7679 0.2807
vn -0.9688 0.2248 -0.1038
vn 0.0319 0.9460 -0.3226
vn 0.9871 0.1555 -0.0374
vn 0.9007 -0.4065 0.1531
vn 0.4751 -0.8346 0.2787
vn -0.5189 -0.5778 0.6299
vn -0.9541 0.2953 0.0494
vn -0.0386 0.8151 -0.5779
vn 0.9600 -0.0112 -0.2798
vn 0.8736 -0.4789 0.0861
vn 0.4888 -0.7801 0.3905
vn -0.3036 -0.2062 0.9302
vn -0.8576 0.4717 0.2049
vn -0.2419 0.5513 -0.7984
vn 0.8140 -0.3224 -0.4832
vn 0.8159 -0.5765 0.0440
vn 0.5694 -0.6497 0.5036
vn 0.0620 0.2487 0.9666
vn -0.6619 0.7151 0.2244
vn -0.5270 0.1965 -0.8268
vn 0.5288 -0.6772 -0.5115
vn 0.7354 -0.6766 0.0360
vn 0.7171 -0.4659 0.5183
vn 0.3999 0.5654 0.7213
vn -0.4993 0.8612 0.0946
vn -0.7564 -0.0781 -0.6493
vn 0.2421 -0.9044 -0.3512
vn 0.6498 -0.7574 0.0638
vn 0.8352 -0.3491 0.4249
vn 0.5995 0.6946 0.3976
vn -0.4220 0.9052 -0.0494
vn -0.8882 -0.1989 -0.4142
vn 0.0670 -0.9894 -0.1289
vn 0.5801 -0.8054 0.1212
vn 0.8939 -0.3135 0.3204
vn -0.7750 0.6308 0.0381
vn -0.7890 0.5506 -0.2723
vn -0.8973 -0.4271 0.1115
vn -0.8916 -0.4084 0.1955
vn 0.1029 -0.9355 0.3378
vn 0.1033 -0.9879 0.1158
vn 0.9866 -0.1270 0.1026
vn 0.9722 -0.1965 -0.1274
vn 0.3560 0.8921 -0.2783
vn 0.3695 0.9115 -0.1803
vn -0.7035 0.3617 -0.6117
vn -0.8764 -0.4815 0.0083
vn 0.0097 -0.8125 0.5828
vn 0.9359 0.0493 0.3486
vn 0.3667 0.8349 -0.4103
vn -0.4337 0.0100 -0.9010
vn -0.7875 -0.6093 -0.0927
vn -0.2307 -0.5683 0.7898
vn 0.7450 0.3733 0.5528
vn 0.4721 0.6854 -0.5544
vn -0.0165 -0.4136 -0.9103
vn -0.6234 -0.7759 -0.0964
vn -0.5543 -0.2396 0.7970
vn 0.3968 0.7268 0.5606
vn 0.6803 0.4739 -0.5590
vn 0.3372 -0.6951 -0.6348
vn -0.4948 -0.8690 -0.0002
vn -0.7993 0.0090 0.6008
vn 0.0715 0.9271 0.3679
vn 0.8313 0.3632 -0.4207
vn 0.5322 -0.7910 -0.3017
vn -0.4385 -0.8930 0.1013
vn -0.9262 0.1094 0.3608
vn -0.1093 0.9858 0.1270
vn 0.8912 0.3486 -0.2902
vn 0.6194 -0.7850 0.0071
vn -0.4179 -0.8895 0.1850
vn -0.9834 0.1155 0.1400
vn -0.1841 0.9776 -0.1016
vn 0.9130 0.3597 -0.1924
vn 0.6302 -0.7080 0.3185
vn -0.4120 -0.8706 0.2689
vn -0.9956 0.0507 -0.0784
vn -0.1826 0.9239 -0.3363
vn 0.9223 0.3750 -0.0932
vn 0.5417 -0.5221 0.6587
vn -0.4358 -0.8191 0.3730
vn -0.9435 -0.1129 -0.3114
vn -0.0810 0.7981 -0.5971
vn 0.9043 0.4249 0.0410
vn 0.2770 -0.1653 0.9465
vn -0.5328 -0.6993 0.4764
vn -0.7596 -0.4133 -0.5020
vn 0.1785 0.5420 -0.8212
vn 0.7980 0.5734 0.1853
vn -0.1402 0.2583 0.9558
vn -0.6969 -0.5327 0.4801
vn -0.4360 -0.7420 -0.5092
vn 0.5266 0.1885 -0.8289
vn 0.5897 0.7849 0.1899
vn -0.4991 0.5347 0.6819
vn -0.8174 -0.4316 0.3815
vn -0.1344 -0.9345 -0.3295
vn 0.7834 -0.0797 -0.6163
vn 0.4397 0.8966 0.0513
vn -0.6910 0.6336 0.3479
vn -0.8708 -0.4047 0.2792
vn 0.0335 -0.9943 -0.1014
vn 0.9133 -0.1889 -0.3607
vn 0.3872 0.9184 -0.0813
s 1
f 1/1/1 6/2/2 7/3/3 2/4/4
f 2/5/4 7/6/3 8/7/5 3/8/6
f 3/8/6 8/7/5 9/9/7 4/10/8
f 71/11/9 72/12/10 10/13/11 5/14/12
f 5/14/12 10/13/11 6/2/2 1/1/1
f 6/2/2 11/15/13 12/16/14 7/3/3
f 7/6/3 12/17/14 13/18/15 8/7/5
f 8/7/5 13/18/15 14/19/16 9/9/7
f 72/12/10 73/20/17 15/21/18 10/13/11
f 10/13/11 15/21/18 11/15/13 6/2/2
f 11/15/13 16/22/19 17/23/20 12/16/14
f 12/17/14 17/24/20 18/25/21 13/18/15
f 13/18/15 18/25/21 19/26/22 14/19/16
f 73/20/17 74/27/23 20/28/24 15/21/18
f 15/21/18 20/28/24 16/22/19 11/15/13
f 16/22/19 21/29/25 22/30/26 17/23/20
f 17/24/20 22/31/26 23/32/27 18/25/21
f 18/25/21 23/32/27 24/33/28 19/26/22
f 74/27/23 75/34/29 25/35/30 20/28/24
f 20/28/24 25/35/30 21/29/25 16/22/19
f 21/29/25 26/36/31 27/37/32 22/30/26
f 22/31/26 27/38/32 28/39/33 23/32/27
f 23/32/27 28/39/33 29/40/34 24/33/28
f 75/34/29 76/41/35 30/42/36 25/35/30
f 25/35/30 30/42/36 26/36/31 21/29/25
f 26/36/31 31/43/37 32/44/38 27/37/32
f 27/38/32 32/45/38 33/46/39 28/39/33
f 28/39/33 33/46/39 34/47/40 29/40/34
f 76/41/35 77/48/41 35/49/42 30/42/36
f 30/42/36 35/49/42 31/43/37 26/36/31
f 31/43/37 36/50/43 37/51/44 32/44/38
f 32/45/38 37/52/44 38/53/45 33/46/39
f 33/46/39 38/53/45 39/54/46 34/47/40
f 77/48/41 78/55/47 40/56/48 35/49/42
f 35/49/42 40/56/48 36/50/43 31/43/37
f 36/50/43 41/57/49 42/58/50 37/51/44
f 37/52/44 42/59/50 43/60/51 38/53/45
f 38/53/45 43/60/51 44/61/52 39/54/46
f 78/55/47 79/62/53 45/63/54 40/56/48
f 40/56/48 45/63/54 41/57/49 36/50/43
f 41/57/49 46/64/55 47/65/56 42/58/50
f 42/59/50 47/66/56 48/67/57 43/60/51
f 43/60/51 48/67/57 49/68/58 44/61/52
f 79/62/53 80/69/59 50/70/60 45/63/54
f 45/63/54 50/70/60 46/64/55 41/57/49
f 46/64/55 51/71/61 52/72/62 47/65/56
f 47/66/56 52/73/62 53/74/63 48/67/57
f 48/67/57 53/74/63 54/75/64 49/68/58
f 80/69/59 81/76/65 55/77/66 50/70/60
f 50/70/60 55/77/66 51/71/61 46/64/55
f 51/71/61 56/78/67 57/79/68 52/72/62
f 52/73/62 57/80/68 58/81/69 53/74/63
f 53/74/63 58/81/69 59/82/70 54/75/64
f 81/76/65 82/83/71 60/84/72 55/77/66
f 55/77/66 60/84/72 56/78/67 51/71/61
f 56/78/67 61/85/73 62/86/74 57/79/68
f 57/80/68 62/87/74 63/88/75 58/81/69
f 58/81/69 63/88/75 64/89/76 59/82/70
f 82/83/71 83/90/77 65/91/78 60/84/72
f 60/84/72 65/91/78 61/85/73 56/78/67
f 61/85/73 66/92/79 67/93/80 62/86/74
f 62/87/74 67/94/80 68/95/81 63/88/75
f 63/88/75 68/95/81 69/96/82 64/89/76
f 83/90/77 84/97/83 70/98/84 65/91/78
f 65/91/78 70/98/84 66/92/79 61/85/73
f 66/92/79 1/1/1 2/4/4 67/93/80
f 67/94/80 2/5/4 3/8/6 68/95/81
f 68/95/81 3/8/6 4/10/8 69/96/82
f 84/97/83 71/11/9 5/14/12 70/98/84
f 70/98/84 5/14/12 1/1/1 66/92/79
f 69/99/82 4/100/8 71/11/9 84/97/83
f 64/101/76 69/99/82 84/97/83 83/90/77
f 59/102/70 64/101/76 83/90/77 82/83/71
f 54/103/64 59/102/70 82/83/71 81/76/65
f 49/104/58 54/103/64 81/76/65 80/69/59
f 44/105/52 49/104/58 80/69/59 79/62/53
f 39/106/46 44/105/52 79/62/53 78/55/47
f 34/107/40 39/106/46 78/55/47 77/48/41
f 29/108/34 34/107/40 77/48/41 76/41/35
f 24/109/28 29/108/34 76/41/35 75/34/29
f 19/110/22 24/109/28 75/34/29 74/27/23
f 14/111/16 19/110/22 74/27/23 73/20/17
f 9/112/7 14/111/16 73/20/17 72/12/10
f 4/100/8 9/112/7 72/12/10 71/11/9
f 85/113/85 90/114/86 91/115/87 86/116/88
f 86/116/88 91/115/87 92/117/89 87/118/90
f 87/119/90 92/120/89 93/121/91 88/122/92
f 88/122/92 93/121/91 94/123/93 89/124/94
f 89/125/94 94/126/93 90/114/86 85/113/85
f 90/114/86 95/127/95 96/128/96 91/115/87
f 91/115/87 96/128/96 97/129/97 92/117/89
f 92/120/89 97/130/97 98/131/98 93/121/91
f 93/121/91 98/131/98 99/132/99 94/123/93
f 94/126/93 99/133/99 95/127/95 90/114/86
f 95/127/95 100/134/100 101/135/101 96/128/96
f 96/128/96 101/135/101 102/136/102 97/129/97
f 97/130/97 102/137/102 103/138/103 98/131/98
f 98/131/98 103/138/103 104/139/104 99/132/99
f 99/133/99 104/140/104 100/134/100 95/127/95
f 100/134/100 105/141/105 106/142/106 101/135/101
f 101/135/101 106/142/106 107/143/107 102/136/102
f 102/137/102 107/144/107 108/145/108 103/138/103
f 103/138/103 108/145/108 109/146/109 104/139/104
f 104/140/104 109/147/109 105/141/105 100/134/100
f 105/141/105 110/148/110 111/149/111 106/142/106
f 106/142/106 111/149/111 112/150/112 107/143/107
f 107/144/107 112/151/112 113/152/113 108/145/108
f 108/145/108 113/152/113 114/153/114 109/146/109
f 109/147/109 114/154/114 110/148/110 105/141/105
f 110/148/110 115/155/115 116/156/116 111/149/111
f 111/149/111 116/156/116 117/157/117 112/150/112
f 112/151/112 117/158/117 118/159/118 113/152/113
f 113/152/113 118/159/118 119/160/119 114/153/114
f 114/154/114 119/161/119 115/155/115 110/148/110
f 115/155/115 120/162/120 121/163/121 116/156/116
f 116/156/116 121/163/121 122/164/122 117/157/117
f 117/158/117 122/165/122 123/166/123 118/159/118
f 118/159/118 123/166/123 124/167/124 119/160/119
f 119/161/119 124/168/124 120/162/120 115/155/115
f 120/162/120 125/169/125 126/170/126 121/163/121
f 121/163/121 126/170/126 127/171/127 122/164/122
f 122/165/122 127/172/127 128/173/128 123/166/123
f 123/166/123 128/173/128 129/174/129 124/167/124
f 124/168/124 129/175/129 125/169/125 120/162/120
f 125/169/125 130/176/130 131/177/131 126/170/126
f 126/170/126 131/177/131 132/178/132 127/171/127
f 127/172/127 132/179/132 133/180/133 128/173/128
f 128/173/128 133/180/133 134/181/134 129/174/129
f 129/175/129 134/182/134 130/176/130 125/169/125
f 130/176/130 135/183/135 136/184/136 131/177/131
f 131/177/131 136/184/136 137/185/137 132/178/132
f 132/179/132 137/186/137 138/187/138 133/180/133
f 133/180/133 138/187/138 139/188/139 134/181/134
f 134/182/134 139/189/139 135/183/135 130/176/130
f 135/183/135 140/190/140 141/191/141 136/184/136
f 136/184/136 141/191/141 142/192/142 137/185/137
f 137/186/137 142/193/142 143/194/143 138/187/138
f 138/187/138 143/194/143 144/195/144 139/188/139
f 139/189/139 144/196/144 140/190/140 135/183/135
f 140/190/140 145/197/145 146/198/146 141/191/141
f 141/191/141 146/198/146 147/199/147 142/192/142
f 142/193/142 147/200/147 148/201/148 143/194/143
f 143/194/143 148/201/148 149/202/149 144/195/144
f 144/196/144 149/203/149 145/197/145 140/190/140
f 145/197/145 150/204/150 151/205/151 146/198/146
f 146/198/146 151/205/151 152/206/152 147/199/147
f 147/200/147 152/207/152 153/208/153 148/201/148
f 148/201/148 153/208/153 154/209/154 149/202/149
f 149/203/149 154/210/154 150/204/150 145/197/145
f 150/204/150 85/113/85 86/116/88 151/205/151
f 151/205/151 86/116/88 87/118/90 152/206/152
f 152/207/152 87/119/90 88/122/92 153/208/153
f 153/208/153 88/122/92 89/124/94 154/209/154
f 154/210/154 89/125/94 85/113/85 150/204/150
