# Blender v2.80 (sub 75) OBJ File: 'Ship._O_Ship.blend'
# www.blender.org
o SteeringWheel_Root
v -0.021699 -0.920750 7.162462
v -0.006703 -0.922757 7.257448
v -0.054217 -0.875243 7.248490
v -0.071894 -0.873054 7.154406
v -0.054217 -0.709151 7.213539
v -0.054217 -0.614122 7.186296
v -0.006703 -0.617975 7.136243
v -0.021047 -0.634414 7.116042
v -0.076688 -0.690371 7.118250
v -0.146317 -0.907196 6.841896
v -0.198528 -0.859511 6.838710
v -0.206207 -0.857675 6.747877
v -0.157508 -0.905189 6.746911
v -0.147682 -0.436817 6.833367
v -0.157686 -0.417877 6.747638
v -0.206207 -0.466057 6.747877
v -0.196318 -0.496265 6.837786
v 0.184138 -0.920750 7.162462
v 0.234334 -0.873054 7.154406
v 0.216656 -0.875243 7.248490
v 0.169142 -0.922757 7.257448
v 0.183486 -0.634414 7.116042
v 0.169142 -0.617975 7.136243
v 0.216656 -0.614122 7.186296
v 0.216656 -0.709151 7.213539
v 0.239127 -0.690371 7.118250
v 0.319947 -0.905189 6.746911
v 0.368646 -0.857675 6.747877
v 0.360967 -0.859511 6.838710
v 0.308756 -0.907196 6.841896
v 0.320126 -0.417877 6.747638
v 0.310121 -0.436817 6.833367
v 0.358757 -0.496265 6.837786
v 0.368646 -0.466057 6.747877
v -0.184613 -0.484715 6.642481
v -0.136191 -0.436449 6.642721
v -0.127563 -0.492245 6.595934
v -0.184613 -0.857675 6.642481
v -0.127563 -0.857675 6.595934
v -0.136311 -0.905189 6.643448
v 0.298750 -0.905189 6.643448
v 0.290002 -0.857675 6.595934
v 0.347053 -0.857675 6.642481
v 0.298631 -0.436449 6.642721
v 0.347053 -0.484715 6.642481
v 0.290002 -0.492245 6.595934
v -0.054217 -0.875243 7.461465
v -0.006703 -0.922757 7.472504
v -0.006703 -0.876262 7.510234
v -0.054217 -0.709151 7.426513
v -0.006703 -0.708132 7.474854
v -0.006703 -0.621870 7.439065
v -0.054217 -0.614122 7.377228
v 0.216656 -0.709151 7.426513
v 0.216656 -0.614122 7.377228
v 0.169142 -0.621870 7.439065
v 0.169142 -0.708132 7.474854
v 0.216656 -0.875243 7.461465
v 0.169142 -0.876262 7.510234
v 0.169142 -0.922757 7.472504
v 0.169142 -0.165357 7.021096
v 0.216656 -0.162346 7.070698
v 0.216656 -0.257375 7.109841
v 0.169142 -0.253522 7.056481
v -0.006703 -0.165357 7.021096
v -0.006703 -0.253522 7.056481
v -0.054217 -0.257375 7.109841
v -0.054217 -0.162346 7.070698
v 0.169142 -0.165357 7.264886
v 0.169142 -0.249627 7.307533
v 0.216656 -0.257375 7.255828
v 0.216656 -0.162346 7.213033
v -0.006703 -0.165357 7.264886
v -0.054217 -0.162346 7.213033
v -0.054217 -0.257375 7.255828
v -0.006703 -0.249627 7.307533
v 0.169142 0.236027 6.637848
v 0.216656 0.239371 6.690284
v 0.216656 0.144342 6.688837
v 0.169142 0.147353 6.636983
v -0.006703 0.236027 6.637848
v -0.006703 0.147353 6.636983
v -0.054217 0.144342 6.688837
v -0.054217 0.239371 6.690284
v 0.169142 0.236027 6.881639
v 0.169142 0.147353 6.880774
v 0.216656 0.144342 6.831172
v 0.216656 0.239371 6.831853
v -0.006703 0.236027 6.881639
v -0.054217 0.239371 6.831853
v -0.054217 0.144342 6.831172
v -0.006703 0.147353 6.880774
v 0.169142 0.634502 6.795797
v 0.169142 0.678672 6.860820
v 0.216656 0.631158 6.845582
v -0.006703 0.634502 6.795797
v -0.054217 0.631158 6.845582
v -0.006703 0.678672 6.860820
v 0.169142 0.634502 7.039587
v 0.216656 0.631158 6.987152
v 0.169142 0.678672 7.009582
v -0.006703 0.634502 7.039587
v -0.006703 0.678672 7.009582
v -0.054217 0.631158 6.987152
v 0.214342 -0.317307 6.705879
v -0.051903 -0.317307 6.705879
v -0.039925 -0.327655 6.647418
v 0.202365 -0.327655 6.647418
vt 0.576463 0.112826
vt 0.576555 0.177630
vt 0.503231 0.172362
vt 0.505206 0.119013
vt 0.509741 0.286008
vt 0.639465 0.288288
vt 0.638300 0.435635
vt 0.509160 0.431962
vt 0.451378 0.557674
vt 0.385378 0.549462
vt 0.430551 0.481507
vt 0.483508 0.496530
vt 0.305264 0.568097
vt 0.195965 0.601812
vt 0.172653 0.404420
vt 0.246063 0.386671
vt 0.078678 0.669988
vt 0.152797 0.643088
vt 0.192574 0.781706
vt 0.095695 0.771518
vt 0.155457 0.587348
vt 0.076327 0.554843
vt 0.102944 0.441300
vt 0.146772 0.418285
vt 0.884492 0.698259
vt 0.886913 0.638809
vt 0.946863 0.639606
vt 0.947019 0.699701
vt 0.347340 0.785572
vt 0.361611 0.815223
vt 0.321441 0.833184
vt 0.313489 0.816662
vt 0.460419 0.706877
vt 0.361860 0.750689
vt 0.360640 0.590142
vt 0.442129 0.588376
vt 0.763773 0.231766
vt 0.764048 0.059401
vt 0.801722 0.066237
vt 0.801825 0.224949
vt 0.948159 0.607035
vt 0.886330 0.606609
vt 0.889857 0.470653
vt 0.947728 0.471736
vt 0.395196 0.477170
vt 0.336265 0.539386
vt 0.274979 0.387669
vt 0.323402 0.389239
vt 0.339679 0.760400
vt 0.215038 0.783491
vt 0.192238 0.619989
vt 0.316040 0.581791
vt 0.114655 0.615367
vt 0.059420 0.646990
vt 0.007532 0.606751
vt 0.047429 0.572888
vt 0.313627 0.362225
vt 0.266736 0.348143
vt 0.197335 0.197418
vt 0.236125 0.205714
vt 0.093454 0.796959
vt 0.197175 0.806990
vt 0.192168 0.836132
vt 0.090605 0.826256
vt 0.365672 0.777559
vt 0.471062 0.732976
vt 0.483508 0.762802
vt 0.380115 0.805948
vt 0.239122 0.345142
vt 0.161273 0.364541
vt 0.149965 0.201282
vt 0.181438 0.196427
vt 0.127050 0.188094
vt 0.089257 0.202490
vt 0.043061 0.076388
vt 0.088159 0.077571
vt 0.137213 0.378771
vt 0.099989 0.411943
vt 0.104369 0.232581
vt 0.136238 0.208827
vt 0.180119 0.177949
vt 0.143855 0.184621
vt 0.108779 0.075351
vt 0.166555 0.061137
vt 0.947292 0.441103
vt 0.890812 0.439632
vt 0.882297 0.245680
vt 0.958519 0.243947
vt 0.570066 0.533953
vt 0.508920 0.532200
vt 0.511108 0.481766
vt 0.567118 0.484439
vt 0.956034 0.208517
vt 0.885846 0.209176
vt 0.895081 0.056210
vt 0.951726 0.057678
vt 0.237941 0.171874
vt 0.197169 0.174197
vt 0.186782 0.054547
vt 0.228479 0.034600
vt 0.611019 0.106854
vt 0.578043 0.088550
vt 0.612457 0.081154
vt 0.729596 0.063515
vt 0.730030 0.037411
vt 0.763808 0.034600
vt 0.216100 0.809139
vt 0.611450 0.183641
vt 0.612875 0.209466
vt 0.578190 0.202233
vt 0.763478 0.256669
vt 0.729691 0.253722
vt 0.729346 0.227659
vt 0.646571 0.261774
vt 0.665710 0.281623
vt 0.505399 0.256968
vt 0.483807 0.278149
vt 0.484670 0.439401
vt 0.504492 0.459987
vt 0.665710 0.442737
vt 0.645016 0.462868
vt 0.502437 0.095458
vt 0.484206 0.115171
vt 0.970106 0.635146
vt 0.974030 0.597199
vt 0.864022 0.633809
vt 0.860779 0.596239
vt 0.500895 0.195353
vt 0.483807 0.176080
vt 0.865914 0.464694
vt 0.870208 0.427851
vt 0.968161 0.429573
vt 0.971630 0.466345
vt 0.857004 0.237700
vt 0.862031 0.207769
vt 0.979420 0.207676
vt 0.983715 0.236641
vt 0.574134 0.562762
vt 0.594145 0.542702
vt 0.504560 0.562797
vt 0.483807 0.541250
vt 0.572229 0.464088
vt 0.594145 0.486215
vt 0.506516 0.463167
vt 0.484789 0.483595
vt 0.802859 0.250181
vt 0.802859 0.041211
vt 0.211219 0.839509
vt 0.971198 0.695496
vt 0.860824 0.693228
vt 0.872205 0.062365
vt 0.974018 0.064459
vt 0.254717 0.827969
vt 0.325274 0.854402
vt 0.316206 0.868946
vt 0.251997 0.844892
vt 0.330906 0.907361
vt 0.215675 0.864193
vt 0.237494 0.788609
vt 0.364119 0.836046
vn 0.0000 -1.0000 0.0000
vn 0.0000 0.0000 -1.0000
vn 1.0000 -0.0000 0.0000
vn 0.0000 -0.2138 -0.9769
vn -0.9213 0.0220 0.3882
vn -1.0000 0.0000 0.0000
vn 0.0000 0.2059 0.9786
vn 0.7173 0.6460 -0.2613
vn 0.9213 0.0220 0.3882
vn 0.0000 0.3332 0.9429
vn 0.0000 0.8196 0.5729
vn -0.9797 0.0000 -0.2007
vn 0.9797 0.0000 -0.2007
vn 0.0000 -0.7755 -0.6313
vn 0.0000 0.3685 -0.9296
vn 0.0000 0.7755 0.6313
vn 0.0000 1.0000 0.0000
vn 0.0000 -0.3685 0.9296
vn -0.7034 -0.7029 0.1060
vn -0.9019 0.4165 -0.1146
vn -0.6858 -0.7257 0.0546
vn -0.7105 0.6527 0.2631
vn 0.7034 -0.7029 0.1060
vn 0.9019 0.4165 -0.1146
vn 0.6858 -0.7257 0.0546
vn 0.7105 0.6527 0.2631
vn -0.5032 0.5083 -0.6989
vn -0.5280 -0.5499 -0.6471
vn 0.5280 -0.5499 -0.6471
vn 0.5032 0.5083 -0.6989
vn -0.6297 -0.4895 0.6032
vn -0.7139 0.2975 0.6339
vn 0.7139 0.2975 0.6339
vn 0.6297 -0.4895 0.6032
vn 0.7072 -0.2664 -0.6549
vn -0.7072 -0.2664 -0.6549
vn 0.7089 0.3034 0.6367
vn -0.7089 0.3034 0.6367
vn 0.7391 0.0085 -0.6735
vn -0.7391 0.0085 -0.6735
vn 0.7228 -0.0058 0.6911
vn -0.7228 -0.0058 0.6911
vn 0.5432 0.6945 -0.4718
vn -0.5432 0.6945 -0.4718
vn 0.6897 0.4069 0.5990
vn -0.6897 0.4069 0.5990
vn -0.6759 -0.6977 0.2372
vn -0.9772 0.0295 0.2104
vn -0.5618 0.5435 0.6237
vn -0.9953 0.0030 0.0973
vn 0.0000 -0.9998 -0.0211
vn 0.0000 0.9765 0.2157
vn 0.9953 0.0030 0.0973
vn 0.6759 -0.6977 0.2372
vn 0.5618 0.5435 0.6237
vn 0.9772 0.0295 0.2104
vn 0.0000 0.7756 -0.6312
vn -0.6322 0.0000 -0.7748
vn 0.0000 -0.7071 -0.7071
vn 0.0000 0.6425 -0.7663
vn 0.6322 0.0000 -0.7748
vn 0.6927 -0.7071 -0.1419
vn 0.6809 0.6844 -0.2607
vn -0.6927 -0.7071 -0.1419
vn -0.6809 0.6844 -0.2607
vn -0.7071 0.1456 0.6919
vn 0.7071 0.1456 0.6919
vn 0.0000 -0.6301 0.7765
vn 0.0000 0.3832 0.9237
vn 0.7071 -0.7071 0.0000
vn -0.7071 -0.7071 0.0000
vn 0.0000 -0.3725 -0.9280
vn 0.0000 0.4515 0.8922
vn -0.7485 0.2174 0.6265
vn -0.7285 -0.1450 -0.6695
vn 0.7285 -0.1450 -0.6695
vn 0.7485 0.2174 0.6265
vn 0.0000 0.0098 -1.0000
vn 0.0000 -0.0098 1.0000
vn -0.5574 -0.6456 -0.5221
vn 0.5574 -0.6456 -0.5221
vn 0.5574 0.6456 0.5221
vn -0.5574 0.6456 0.5221
vn 0.0000 0.8272 -0.5619
vn 0.0000 0.5619 0.8272
vn -0.7071 0.7071 0.0000
vn 0.7071 0.7071 0.0000
vn 0.7071 0.2606 -0.6573
vn 0.7071 -0.2606 0.6573
vn -0.7071 -0.2606 0.6573
vn -0.7071 0.2606 -0.6573
vn 0.0000 -0.9991 -0.0422
vn 0.0000 0.9847 -0.1743
vn 0.0000 0.0431 -0.9991
vn -0.7173 0.6460 -0.2613
vn 0.0000 0.3835 0.9236
s off
f 2/1/1 21/2/1 60/3/1 48/4/1
f 39/5/2 37/6/2 46/7/2 42/8/2
f 20/9/3 25/10/3 54/11/3 58/12/3
f 23/13/4 7/14/4 66/15/4 64/16/4
f 4/17/5 9/18/5 17/19/5 11/20/5
f 6/21/6 53/22/6 75/23/6 67/24/6
f 59/25/7 57/26/7 51/27/7 49/28/7
f 31/29/8 44/30/8 108/31/8 105/32/8
f 29/33/9 33/34/9 26/35/9 19/36/9
f 27/37/1 13/38/1 40/39/1 41/40/1
f 52/41/10 56/42/10 70/43/10 76/44/10
f 55/45/3 24/46/3 63/47/3 71/48/3
f 32/49/11 14/50/11 8/51/11 22/52/11
f 5/53/6 3/54/6 47/55/6 50/56/6
f 72/57/3 62/58/3 79/59/3 87/60/3
f 12/61/12 16/62/12 35/63/12 38/64/12
f 34/65/13 28/66/13 43/67/13 45/68/13
f 61/69/14 65/70/14 82/71/14 80/72/14
f 84/73/6 90/74/6 104/75/6 97/76/6
f 68/77/6 74/78/6 91/79/6 83/80/6
f 77/81/15 81/82/15 96/83/15 93/84/15
f 73/85/16 69/86/16 86/87/16 92/88/16
f 94/89/17 98/90/17 103/91/17 101/92/17
f 89/93/18 85/94/18 99/95/18 102/96/18
f 88/97/3 78/98/3 95/99/3 100/100/3
f 1/101/19 2/1/19 3/102/19 4/103/19
f 5/53/20 6/21/20 7/14/20 8/51/20 9/18/20
f 10/104/21 11/105/21 12/106/21 13/38/21
f 14/50/22 15/107/22 16/62/22 17/19/22
f 18/108/23 19/109/23 20/110/23 21/2/23
f 22/52/24 23/13/24 24/46/24 25/10/24 26/35/24
f 27/37/25 28/111/25 29/112/25 30/113/25
f 31/29/26 32/49/26 33/34/26 34/65/26
f 35/114/27 36/115/27 37/6/27
f 38/116/28 39/5/28 40/117/28
f 41/118/29 42/8/29 43/119/29
f 44/120/30 45/121/30 46/7/30
f 47/122/31 48/4/31 49/123/31
f 50/124/32 51/27/32 52/41/32 53/125/32
f 54/126/33 55/127/33 56/42/33 57/26/33
f 58/128/34 59/129/34 60/3/34
f 61/69/35 62/58/35 63/47/35 64/16/35
f 65/70/36 66/15/36 67/24/36 68/77/36
f 69/86/37 70/43/37 71/130/37 72/131/37
f 73/85/38 74/132/38 75/133/38 76/44/38
f 77/81/39 78/98/39 79/59/39 80/72/39
f 81/82/40 82/71/40 83/80/40 84/73/40
f 85/94/41 86/87/41 87/134/41 88/135/41
f 89/93/42 90/136/42 91/137/42 92/88/42
f 93/138/43 94/89/43 95/139/43
f 96/140/44 97/141/44 98/90/44
f 99/142/45 100/143/45 101/92/45
f 102/144/46 103/91/46 104/145/46
f 10/104/47 1/101/47 4/103/47 11/105/47
f 3/54/48 5/53/48 9/18/48 4/17/48
f 8/51/49 14/50/49 17/19/49 9/18/49
f 16/62/50 12/61/50 11/20/50 17/19/50
f 30/113/51 10/104/51 13/38/51 27/37/51
f 14/50/52 32/49/52 31/29/52 15/107/52
f 33/34/53 29/33/53 28/66/53 34/65/53
f 18/108/54 30/113/54 29/112/54 19/109/54
f 32/49/55 22/52/55 26/35/55 33/34/55
f 25/10/56 20/9/56 19/36/56 26/35/56
f 1/101/51 18/108/51 21/2/51 2/1/51
f 22/52/57 8/51/57 7/14/57 23/13/57
f 37/6/58 39/5/58 38/116/58 35/114/58
f 41/118/59 40/117/59 39/5/59 42/8/59
f 36/115/60 44/120/60 46/7/60 37/6/60
f 45/121/61 43/119/61 42/8/61 46/7/61
f 27/37/62 41/40/62 43/146/62 28/111/62
f 44/30/63 31/29/63 34/65/63 45/68/63
f 12/106/64 38/147/64 40/39/64 13/38/64
f 35/63/65 16/62/65 15/107/65 36/148/65
f 49/28/66 51/27/66 50/124/66 47/149/66
f 57/26/67 59/25/67 58/150/67 54/126/67
f 48/4/68 60/3/68 59/129/68 49/123/68
f 56/42/69 52/41/69 51/27/69 57/26/69
f 5/53/6 50/56/6 53/22/6 6/21/6
f 54/11/3 25/10/3 24/46/3 55/45/3
f 60/3/70 21/2/70 20/110/70 58/128/70
f 2/1/71 48/4/71 47/122/71 3/102/71
f 64/16/72 66/15/72 65/70/72 61/69/72
f 69/86/73 73/85/73 76/44/73 70/43/73
f 67/24/6 75/23/6 74/78/6 68/77/6
f 71/48/3 63/47/3 62/58/3 72/57/3
f 52/41/74 76/44/74 75/133/74 53/125/74
f 66/15/75 7/14/75 6/21/75 67/24/75
f 63/47/76 24/46/76 23/13/76 64/16/76
f 70/43/77 56/42/77 55/127/77 71/130/77
f 80/72/78 82/71/78 81/82/78 77/81/78
f 85/94/79 89/93/79 92/88/79 86/87/79
f 83/80/6 91/79/6 90/74/6 84/73/6
f 87/60/3 79/59/3 78/98/3 88/97/3
f 68/77/80 83/80/80 82/71/80 65/70/80
f 79/59/81 62/58/81 61/69/81 80/72/81
f 86/87/82 69/86/82 72/131/82 87/134/82
f 91/137/83 74/132/83 73/85/83 92/88/83
f 93/138/84 96/140/84 98/90/84 94/89/84
f 101/92/85 103/91/85 102/144/85 99/142/85
f 97/141/86 104/145/86 103/91/86 98/90/86
f 100/143/87 95/139/87 94/89/87 101/92/87
f 77/81/88 93/84/88 95/99/88 78/98/88
f 99/95/89 85/94/89 88/135/89 100/151/89
f 104/152/90 90/136/90 89/93/90 102/96/90
f 96/83/91 81/82/91 84/73/91 97/76/91
f 10/104/92 30/113/92 18/108/92 1/101/92
f 106/153/93 105/154/93 108/155/93 107/156/93
f 44/157/94 36/158/94 107/156/94 108/155/94
f 36/148/95 15/107/95 106/153/95 107/156/95
f 15/159/96 31/160/96 105/154/96 106/153/96
