# Blender v2.80 (sub 75) OBJ File: 'Ship._O_Ship.blend'
# www.blender.org
o SteeringWheel_000
v 0.000295 2.035794 -15.193966
v 0.000295 2.626970 -15.193966
v 0.418988 2.035794 -15.057924
v 0.418988 2.626970 -15.057924
v 0.677755 2.035794 -14.701762
v 0.677755 2.626970 -14.701762
v 0.677755 2.035794 -14.261521
v 0.677755 2.626970 -14.261521
v 0.418988 2.035794 -13.905359
v 0.418988 2.626970 -13.905359
v 0.000295 2.035794 -13.769318
v 0.000295 2.626970 -13.769318
v -0.418399 2.035794 -13.905359
v -0.418399 2.626970 -13.905359
v -0.677166 2.035794 -14.261521
v -0.677166 2.626970 -14.261521
v -0.677166 2.035794 -14.701762
v -0.677166 2.626970 -14.701762
v -0.418399 2.035794 -15.057924
v -0.418399 2.626970 -15.057924
v 0.257968 3.033060 -14.836299
v 0.000295 3.033060 -14.920022
v 0.417219 3.033060 -14.617108
v 0.417219 3.033060 -14.346174
v 0.257968 3.033060 -14.126985
v 0.000295 3.033060 -14.043262
v -0.257379 3.033060 -14.126985
v -0.416629 3.033060 -14.346174
v -0.416629 3.033060 -14.617108
v -0.257378 3.033060 -14.836299
v 0.149736 2.416032 -13.380738
v 0.149736 2.246732 -13.380738
v 0.000295 2.162082 -13.380738
v 0.000295 2.500682 -13.380738
v -0.149146 2.246732 -13.380738
v -0.149146 2.416032 -13.380738
v 0.176528 2.122200 -9.053179
v 0.176528 1.922247 -9.053179
v 0.000030 1.822270 -9.053179
v 0.000030 2.222177 -9.053179
v -0.176468 1.922247 -9.053179
v -0.176468 2.122200 -9.053179
v -0.010792 2.008172 -9.024623
vt 0.000159 0.223733
vt 0.143283 0.251655
vt 0.153875 0.319210
vt 0.012107 0.370023
vt 0.200036 0.372847
vt 0.099179 0.492738
vt 0.273818 0.397264
vt 0.238497 0.559178
vt 0.367025 0.377411
vt 0.396767 0.559057
vt 0.421581 0.280396
vt 0.539011 0.287973
vt 0.539533 0.364772
vt 0.430515 0.031097
vt 0.563203 0.000159
vt 0.630877 0.101367
vt 0.573077 0.146818
vt 0.384045 0.176881
vt 0.298425 0.141595
vt 0.308132 0.003833
vt 0.225282 0.149406
vt 0.177405 0.019743
vt 0.267807 0.322287
vt 0.303095 0.309064
vt 0.169431 0.189624
vt 0.063277 0.096085
vt 0.785928 0.325550
vt 0.690297 0.294478
vt 0.631195 0.213130
vt 0.631195 0.112579
vt 0.690297 0.031231
vt 0.785928 0.000159
vt 0.881558 0.031231
vt 0.940660 0.112579
vt 0.940660 0.213130
vt 0.881558 0.294478
vt 0.210643 0.288188
vt 0.206743 0.256446
vt 0.220291 0.227458
vt 0.249329 0.211899
vt 0.284765 0.213055
vt 0.313497 0.236485
vt 0.320887 0.274828
vt 0.233742 0.312210
vt 0.566976 0.433971
vt 0.546443 0.214228
vt 0.547519 0.601943
vt 0.630877 0.489393
vt 0.006720 0.871509
vt 0.002272 0.818202
vt 0.993488 0.810271
vt 0.997286 0.855781
vt 0.002277 0.709752
vt 0.006726 0.656445
vt 0.997291 0.672169
vt 0.993493 0.717681
vt 0.009713 0.602261
vt 0.999841 0.625908
vt 0.009713 0.925692
vt 0.999841 0.902043
vt 0.000159 0.763977
vt 0.991684 0.763976
vt 0.671166 0.325868
vt 0.711208 0.348516
vt 0.667249 0.373065
vt 0.671172 0.419137
vt 0.631204 0.396454
vt 0.631195 0.349863
vt 0.711208 0.395190
vn 0.0000 -0.6437 -0.7653
vn 0.0000 0.2774 -0.9607
vn 0.5647 0.2774 -0.7772
vn 0.4498 -0.6437 -0.6191
vn 0.9137 0.2774 -0.2969
vn 0.7278 -0.6437 -0.2365
vn 0.9137 0.2774 0.2969
vn 0.7278 -0.6437 0.2365
vn 0.6714 0.3916 0.6292
vn 0.5647 -0.7210 0.4015
vn 0.0000 0.7929 0.6093
vn 0.0000 0.9660 0.2584
vn 0.7903 0.5354 0.2978
vn -0.5647 -0.7210 0.4015
vn 0.0000 -0.9694 0.2455
vn 0.0000 -0.9814 0.1916
vn -0.8099 -0.5244 0.2627
vn -0.6714 0.3916 0.6292
vn -0.9137 0.2774 0.2969
vn -0.7278 -0.6437 0.2365
vn -0.9137 0.2774 -0.2969
vn -0.7278 -0.6437 -0.2365
vn 0.5099 0.8441 0.1657
vn 0.3151 0.8441 0.4337
vn -0.5647 0.2774 -0.7772
vn -0.4498 -0.6437 -0.6191
vn 0.3151 0.8441 -0.4337
vn 0.0000 0.8441 -0.5361
vn -0.3151 0.8441 -0.4337
vn -0.5099 0.8441 -0.1657
vn -0.5099 0.8441 0.1657
vn -0.3151 0.8441 0.4337
vn 0.0000 0.8441 0.5361
vn 0.5099 0.8441 -0.1657
vn 0.8099 -0.5244 0.2628
vn -0.7903 0.5354 0.2978
vn 0.7103 0.3971 0.5812
vn 0.7148 -0.4315 0.5503
vn -0.7169 -0.4335 0.5459
vn -0.7120 0.3993 0.5776
vn 0.0011 -0.8455 0.5340
vn 0.0008 0.8028 0.5962
vn -0.0089 -0.0120 0.9999
s 1
f 1/1/1 2/2/2 4/3/3 3/4/4
f 3/4/4 4/3/3 6/5/5 5/6/6
f 5/6/6 6/5/5 8/7/7 7/8/8
f 7/8/8 8/7/7 10/9/9 9/10/10
f 10/9/9 12/11/11 34/12/12 31/13/13
f 13/14/14 11/15/15 33/16/16 35/17/17
f 13/14/14 14/18/18 16/19/19 15/20/20
f 15/20/20 16/19/19 18/21/21 17/22/22
f 10/9/9 8/7/7 24/23/23 25/24/24
f 17/22/22 18/21/21 20/25/25 19/26/26
f 19/26/26 20/25/25 2/2/2 1/1/1
f 1/27/1 3/28/4 5/29/6 7/30/8 9/31/10 11/32/15 13/33/14 15/34/20 17/35/22 19/36/26
f 21/37/27 22/38/28 30/39/29 29/40/30 28/41/31 27/42/32 26/43/33 25/24/24 24/23/23 23/44/34
f 4/3/3 2/2/2 22/38/28 21/37/27
f 8/7/7 6/5/5 23/44/34 24/23/23
f 6/5/5 4/3/3 21/37/27 23/44/34
f 2/2/2 20/25/25 30/39/29 22/38/28
f 20/25/25 18/21/21 29/40/30 30/39/29
f 18/21/21 16/19/19 28/41/31 29/40/30
f 16/19/19 14/18/18 27/42/32 28/41/31
f 14/18/18 12/11/11 26/43/33 27/42/32
f 12/11/11 10/9/9 25/24/24 26/43/33
f 9/10/10 10/9/9 31/13/13 32/45/35
f 12/11/11 14/18/18 36/46/36 34/12/12
f 11/47/15 9/10/10 32/45/35 33/48/16
f 14/18/18 13/14/14 35/17/17 36/46/36
f 32/49/35 31/50/13 37/51/37 38/52/38
f 36/53/36 35/54/17 41/55/39 42/56/40
f 35/54/17 33/57/16 39/58/41 41/55/39
f 33/59/16 32/49/35 38/52/38 39/60/41
f 34/61/12 36/53/36 42/56/40 40/62/42
f 31/50/13 34/61/12 40/62/42 37/51/37
f 38/63/38 37/64/37 43/65/43
f 42/66/40 41/67/39 43/65/43
f 41/67/39 39/68/41 43/65/43
f 39/68/41 38/63/38 43/65/43
f 40/69/42 42/66/40 43/65/43
f 37/64/37 40/69/42 43/65/43
