# Blender v2.80 (sub 75) OBJ File: 'Ship._O_Ship.blend'
# www.blender.org
o Window.s
v -0.900244 2.240668 -8.652488
v -0.765922 3.771087 -8.213251
v -0.900244 2.267593 -8.746302
v -0.765922 3.798012 -8.307066
v 0.870831 2.240668 -8.652488
v 0.773495 3.771087 -8.213251
v 0.870831 2.267593 -8.746302
v 0.773495 3.798012 -8.307066
v 0.002275 2.281095 -8.993538
v 0.002275 3.811513 -8.554302
v 0.002275 2.254169 -8.899724
v 0.002275 3.784588 -8.460487
v 0.402688 3.859161 -8.503181
v 0.402688 2.301817 -8.848603
v 0.402688 2.328742 -8.942417
v 0.402688 3.832236 -8.409368
v -0.396267 2.285882 -8.931869
v -0.396267 3.789376 -8.398819
v -0.396267 3.816301 -8.492633
v -0.396267 2.258957 -8.838055
v -1.873738 2.315339 -5.650714
v -1.644900 3.790751 -5.655510
v -1.958298 2.328433 -5.657450
v -1.729460 3.803844 -5.662246
v -1.729581 2.286918 -7.515664
v -1.522206 3.766562 -7.242794
v -1.814140 2.300012 -7.522399
v -1.606765 3.779655 -7.249529
v -1.896950 2.316338 -6.451091
v -1.668113 3.791750 -6.455887
v -1.812391 2.303245 -6.444355
v -1.583553 3.778656 -6.449152
v -1.637439 3.785702 -6.852708
v -1.781718 2.297197 -6.841177
v -1.866277 2.310290 -6.847912
v -1.552879 3.772609 -6.845973
v -1.927624 2.322385 -6.054271
v -1.614226 3.784704 -6.052330
v -1.698786 3.797797 -6.059067
v -1.843065 2.309292 -6.047535
v 1.924841 2.386295 -5.636862
v 1.837012 3.875789 -5.690933
v 1.839792 2.381665 -5.626267
v 1.751962 3.871159 -5.680339
v 1.698135 2.305581 -7.492049
v 1.644059 3.807093 -7.269907
v 1.613086 2.300951 -7.481454
v 1.559010 3.802462 -7.259313
v 1.743315 2.347317 -6.415754
v 1.655486 3.836810 -6.469826
v 1.828365 2.351947 -6.426349
v 1.740535 3.841441 -6.480420
v 1.607248 3.819636 -6.864569
v 1.780127 2.334773 -6.821093
v 1.695077 2.330142 -6.810498
v 1.692297 3.824267 -6.875164
v 1.791554 2.364491 -6.021011
v 1.788773 3.858615 -6.085677
v 1.703724 3.853985 -6.075082
v 1.876603 2.369121 -6.031606
vt 0.522952 0.068205
vt 0.950621 0.072024
vt 0.950401 0.096610
vt 0.522732 0.092790
vt 0.519677 0.434840
vt 0.947346 0.438660
vt 0.946328 0.552677
vt 0.517946 0.628638
vt 0.950621 0.576885
vt 0.522239 0.652847
vt 0.497128 0.206587
vt 0.069460 0.202768
vt 0.070478 0.088751
vt 0.498147 0.092571
vt 0.493361 0.628418
vt 0.495092 0.434621
vt 0.044874 0.202548
vt 0.045892 0.088531
vt 0.042838 0.430581
vt 0.043856 0.316565
vt 0.068441 0.316784
vt 0.067423 0.430801
vt 0.521714 0.206807
vt 0.520695 0.320824
vt 0.496110 0.320604
vt 0.949382 0.210626
vt 0.948364 0.324643
vt 0.066405 0.544818
vt 0.041819 0.544598
vt 0.500400 0.752656
vt 0.917925 0.748927
vt 0.918139 0.772929
vt 0.500615 0.776658
vt 0.473416 0.418934
vt 0.055892 0.422663
vt 0.054897 0.311351
vt 0.471726 0.229734
vt 0.499919 0.205884
vt 0.918139 0.280044
vt 0.913948 0.303678
vt 0.495728 0.229519
vt 0.499406 0.641344
vt 0.916930 0.637615
vt 0.497418 0.418720
vt 0.057880 0.645287
vt 0.058874 0.756599
vt 0.034872 0.756814
vt 0.033878 0.645502
vt 0.056886 0.533975
vt 0.032883 0.534190
vt 0.031889 0.422877
vt 0.475404 0.641558
vt 0.474410 0.530246
vt 0.498412 0.530032
vt 0.914942 0.414991
vt 0.915936 0.526303
vt 0.030895 0.311565
vt 0.476398 0.752870
vt 0.450726 0.978764
vt 0.029343 0.949292
vt 0.031144 0.923553
vt 0.452526 0.953024
vt 0.450492 0.612817
vt 0.032669 0.596294
vt 0.038233 0.481234
vt 0.464030 0.475851
vt 0.489201 0.441362
vt 0.920843 0.468121
vt 0.919206 0.494531
vt 0.487564 0.467772
vt 0.473380 0.820049
vt 0.920636 0.833227
vt 0.910685 0.949209
vt 0.476168 0.960993
vt 0.475897 0.607625
vt 0.946152 0.826551
vt 0.934618 0.939848
vt 0.956376 0.612012
vt 0.948359 0.718078
vt 0.921257 0.717534
vt 0.932396 0.604956
vt 0.449148 0.814102
vt 0.449476 0.714649
vt 0.474631 0.715528
vt 0.039418 0.814414
vt 0.045787 0.705559
vt 0.941697 0.503625
vn -0.0771 0.0152 0.9969
vn -0.9852 0.1525 -0.0785
vn 0.1039 0.1663 -0.9806
vn 0.9852 -0.1525 0.0785
vn -0.1533 -0.9882 0.0032
vn 0.1533 0.9882 -0.0032
vn 0.1212 0.0431 0.9917
vn -0.9909 -0.0539 0.1234
vn -0.1299 0.1405 -0.9815
vn 0.9909 0.0539 -0.1234
vn 0.0588 -0.9976 0.0362
vn -0.0588 0.9976 -0.0362
vn -0.4995 -0.6994 0.5111
vn -0.4151 0.3707 0.8308
vn -0.6049 0.7594 -0.2395
vn -0.7109 -0.4012 -0.5776
vn 0.2505 -0.4178 -0.8733
vn 0.1466 0.8573 -0.4935
vn 0.6590 0.7162 -0.2296
vn 0.6919 -0.4453 -0.5682
vn 0.4208 0.3366 0.8423
vn 0.4588 -0.7249 0.5138
vn 0.1343 -0.8929 0.4297
vn 0.2377 0.5217 0.8194
vn -0.1376 -0.8900 0.4347
vn -0.1575 0.8489 -0.5046
vn -0.0504 0.8382 -0.5430
vn -0.0154 0.4890 0.8721
vn -0.2178 0.5642 0.7964
vn -0.2307 -0.4584 -0.8583
vn 0.0124 -0.4803 -0.8770
vn 0.0547 -0.9048 0.4223
s off
f 21/1/1 22/2/1 24/3/1 23/4/1
f 35/5/2 33/6/2 28/7/2 27/8/2
f 27/8/3 28/7/3 26/9/3 25/10/3
f 40/11/4 38/12/4 22/13/4 21/14/4
f 35/5/5 27/8/5 25/15/5 34/16/5
f 39/17/6 24/18/6 22/13/6 38/12/6
f 33/19/6 30/20/6 32/21/6 36/22/6
f 37/23/5 29/24/5 31/25/5 40/11/5
f 34/16/4 36/22/4 32/21/4 31/25/4
f 37/23/2 39/26/2 30/27/2 29/24/2
f 25/15/4 26/28/4 36/22/4 34/16/4
f 28/29/6 33/19/6 36/22/6 26/28/6
f 29/24/5 35/5/5 34/16/5 31/25/5
f 29/24/2 30/27/2 33/6/2 35/5/2
f 23/4/2 24/3/2 39/26/2 37/23/2
f 23/4/5 37/23/5 40/11/5 21/14/5
f 30/20/6 39/17/6 38/12/6 32/21/6
f 31/25/4 32/21/4 38/12/4 40/11/4
f 41/30/7 42/31/7 44/32/7 43/33/7
f 55/34/8 53/35/8 48/36/8 47/37/8
f 47/38/9 48/39/9 46/40/9 45/41/9
f 60/42/10 58/43/10 42/31/10 41/30/10
f 55/34/11 47/37/11 45/41/11 54/44/11
f 59/45/12 44/46/12 42/47/12 58/48/12
f 53/35/12 50/49/12 52/50/12 56/51/12
f 57/52/11 49/53/11 51/54/11 60/42/11
f 54/44/10 56/55/10 52/56/10 51/54/10
f 57/52/8 59/45/8 50/49/8 49/53/8
f 45/41/10 46/40/10 56/55/10 54/44/10
f 48/36/12 53/35/12 56/51/12 46/57/12
f 49/53/11 55/34/11 54/44/11 51/54/11
f 49/53/8 50/49/8 53/35/8 55/34/8
f 43/58/8 44/46/8 59/45/8 57/52/8
f 43/58/11 57/52/11 60/42/11 41/30/11
f 50/49/12 59/45/12 58/48/12 52/50/12
f 51/54/10 52/56/10 58/43/10 60/42/10
s 1
f 1/59/13 2/60/14 4/61/15 3/62/16
f 15/63/17 13/64/18 8/65/19 7/66/20
f 7/67/20 8/68/19 6/69/21 5/70/22
f 20/71/23 18/72/24 2/73/14 1/74/13
f 15/63/17 7/66/20 5/70/22 14/75/25
f 19/76/26 4/77/15 2/73/14 18/72/24
f 13/78/18 10/79/27 12/80/28 16/81/29
f 17/82/30 9/83/31 11/84/32 20/71/23
f 14/75/25 16/81/29 12/80/28 11/84/32
f 17/82/30 19/85/26 10/86/27 9/83/31
f 5/70/22 6/69/21 16/81/29 14/75/25
f 8/87/19 13/78/18 16/81/29 6/69/21
f 9/83/31 15/63/17 14/75/25 11/84/32
f 9/83/31 10/86/27 13/64/18 15/63/17
f 3/62/16 4/61/15 19/85/26 17/82/30
f 3/62/16 17/82/30 20/71/23 1/74/13
f 10/79/27 19/76/26 18/72/24 12/80/28
f 11/84/32 12/80/28 18/72/24 20/71/23
